<?xml version="1.0" encoding="utf-8"?>
<!-- Generator: Adobe Illustrator 17.1.0, SVG Export Plug-In . SVG Version: 6.00 Build 0)  -->
<!DOCTYPE svg PUBLIC "-//W3C//DTD SVG 1.1//EN" "http://www.w3.org/Graphics/SVG/1.1/DTD/svg11.dtd">
<svg version="1.1" id="Layer_1" focusable="false" xmlns="http://www.w3.org/2000/svg" xmlns:xlink="http://www.w3.org/1999/xlink"
	 x="0px" y="0px" viewBox="0 0 30 30" enable-background="new 0 0 30 30" xml:space="preserve">
<path fill="#CE582B" d="M8.5,5.6l-5,5c-0.3-0.2,1.3,1.5,1.2,1.2l5-5C10,7,8.4,5.3,8.5,5.6z M18,10.5l-5-5c0.2-0.3-1.5,1.3-1.2,1.2
	l5,5C16.7,12,18.4,10.3,18,10.5z M25.7,5.7l-5.1,4.9c-0.3-0.2,1.3,1.5,1.2,1.2l5.1-4.9C27.1,7,25.5,5.4,25.7,5.7z M2.5,10.4
	c-1.4,0-2.5,1.1-2.5,2.5s1.1,2.5,2.5,2.5S5,14.3,5,12.9S3.8,10.4,2.5,10.4z M2.5,14.9c-1,0-1.9-0.8-2-1.8h4
	C4.3,14.2,3.5,14.9,2.5,14.9z M0.5,12.6c0.1-1,1-1.8,2-1.8s1.9,0.8,2,1.8H0.5z M8.4,5.8c0.7,1.2,2.2,1.7,3.4,1s1.7-2.2,1-3.4
	s-2.2-1.7-3.4-1C8.2,3,7.7,4.6,8.4,5.8z M12.4,3.6c0.5,0.9,0.2,2-0.6,2.6l-2-3.5C10.8,2.3,11.9,2.7,12.4,3.6z M11.4,6.4
	c-0.9,0.4-2,0-2.5-0.9s-0.2-2,0.6-2.6L11.4,6.4z M20,14.9c1.3-0.4,2.1-1.8,1.8-3.1S20,9.7,18.7,10c-1.3,0.4-2.1,1.8-1.8,3.1
	S18.6,15.3,20,14.9z M18.8,10.5c1-0.3,2,0.3,2.4,1.2l-3.9,1.1C17.2,11.8,17.8,10.8,18.8,10.5z M21.3,12.2c0.1,1-0.5,2-1.5,2.2
	s-2-0.3-2.4-1.2L21.3,12.2z M27,6.9c1.4,0.3,2.7-0.7,2.9-2c0.3-1.4-0.7-2.7-2-2.9c-1.4-0.3-2.7,0.7-2.9,2C24.7,5.3,25.6,6.6,27,6.9z
	 M27.8,2.4c1,0.2,1.7,1.1,1.6,2.1l-3.9-0.7C25.8,2.8,26.8,2.2,27.8,2.4z M29.3,5C29,6,28,6.6,27,6.4s-1.7-1.1-1.6-2.1L29.3,5z
	 M9.5,14.2c-1.9,0.7-2.8,2.9-2.1,4.7l2.6,6.8c0.7,1.8,2.9,2.8,4.7,2.1c1.9-0.7,2.8-2.9,2.1-4.7l-2.6-6.8
	C13.5,14.5,11.4,13.5,9.5,14.2z M15.9,23.5c0.6,1.4-0.1,2.9-1.5,3.3c-1.4,0.6-2.9-0.1-3.3-1.5l-1-2.4l4.8-1.9L15.9,23.5z M14.6,20
	l-4.8,1.9l-1.4-3.3c-0.6-1.4,0.1-2.9,1.5-3.3c1.4-0.6,2.9,0.1,3.3,1.5L14.6,20z M22.2,16.1l-1.9,5c-0.5,1.3,0.1,3,1.5,3.5
	c1.3,0.5,3-0.2,3.5-1.5l1.9-5c0.5-1.3-0.1-3-1.5-3.5C24.2,14.1,22.7,14.8,22.2,16.1z M21.7,19.6l3.6,1.4l-0.7,1.7
	c-0.3,1-1.4,1.5-2.4,1.1c-1-0.3-1.5-1.4-1.1-2.4L21.7,19.6z M22.9,16.5c0.3-1,1.4-1.5,2.4-1.1c1,0.3,1.5,1.4,1.1,2.4l-1,2.4
	l-3.6-1.4L22.9,16.5z"/>
</svg>
