<?xml version="1.0" encoding="utf-8"?>
<!-- Generator: Adobe Illustrator 17.1.0, SVG Export Plug-In . SVG Version: 6.00 Build 0)  -->
<!DOCTYPE svg PUBLIC "-//W3C//DTD SVG 1.1//EN" "http://www.w3.org/Graphics/SVG/1.1/DTD/svg11.dtd">
<svg version="1.1" id="Layer_1" focusable="false" xmlns="http://www.w3.org/2000/svg" xmlns:xlink="http://www.w3.org/1999/xlink"
	 x="0px" y="0px" viewBox="0 0 30 30" enable-background="new 0 0 30 30" xml:space="preserve">
<path fill="#CE582B" d="M3.8,12.5c0-0.7,0.5-1.2,1.2-1.2c0,0,0,0,0,0h10V4.4c0-0.3,0.2-0.5,0.5-0.5c0.1,0,0.2,0,0.3,0.1l10.1,10.1
	c0.5,0.5,0.5,1.2,0,1.7c0,0,0,0,0,0L15.8,25.9c-0.2,0.2-0.5,0.2-0.7,0C15,25.8,15,25.7,15,25.6v-6.9H5c-0.7,0-1.2-0.5-1.2-1.2
	c0,0,0,0,0,0V12.5 M1.9,12.5v5.1c0,1.7,1.4,3.1,3.1,3.1h8.2v5c0,2.1,2.5,3.1,4,1.7l10.1-10.1c1.2-1.2,1.2-3.2,0-4.4c0,0,0,0,0,0
	L17.1,2.7c-1.5-1.5-4-0.4-4,1.7v5H5C3.3,9.4,1.9,10.8,1.9,12.5z"/>
</svg>
