<svg width="51" height="58" viewBox="0 0 72 82" fill="none" xmlns="http://www.w3.org/2000/svg">
<g clip-path="url(#clip0)">
<path d="M63.3313 41.0002C72.2609 54.5308 74.767 67.3032 68.6097 73.4267C66.2945 75.7239 63.0651 76.875 59.1227 76.875C55.7176 76.875 51.8002 76.0192 47.481 74.3025C43.7545 72.8211 39.8773 70.664 36.0001 68.124C32.1179 70.6665 28.2407 72.8211 24.5192 74.3025C20.2001 76.0192 16.2727 76.875 12.8776 76.875C8.9301 76.875 5.70078 75.7239 3.39053 73.4267C-2.76677 67.3032 -0.260659 54.5308 8.66391 41.0002C-0.260659 27.4695 -2.76677 14.6971 3.39053 8.5737C7.69964 4.29455 15.1929 3.99176 24.5192 7.69785C28.2407 9.1793 32.1179 11.3364 36.0001 13.8763C39.8773 11.3339 43.7545 9.17929 47.481 7.69785C56.8225 3.98675 64.3157 4.30206 68.6097 8.5737C74.767 14.6971 72.2609 27.4695 63.3313 41.0002ZM31.46 64.9134C27.7632 62.1652 24.2626 59.1642 20.9835 55.9322C17.6981 52.6794 14.6439 49.2026 11.843 45.5271C4.9625 56.6178 3.34533 66.1371 7.03168 69.8031C9.75375 72.4982 15.4189 72.4057 22.6007 69.5454C25.4684 68.4018 28.4567 66.7652 31.46 64.9134ZM11.848 36.4733C17.4329 29.1198 24.0359 22.5927 31.46 17.087C28.4567 15.2352 25.4734 13.5986 22.6007 12.455C18.8943 10.981 15.5946 10.2428 12.8876 10.2428C10.3514 10.2428 8.34751 10.8935 7.0367 12.1972C3.34533 15.8658 4.96752 25.3825 11.848 36.4733ZM36.0001 61.938C40.0402 59.0343 43.8423 55.8152 47.3705 52.3112C50.9056 48.8058 54.1537 45.0242 57.0836 41.0027C54.1549 36.9801 50.9068 33.1985 47.3705 29.6942C43.8419 26.1907 40.0398 22.9716 36.0001 20.0674C31.9578 22.9702 28.154 26.1894 24.6247 29.6942C21.0886 33.1972 17.842 36.979 14.9166 41.0027C17.8433 45.0254 21.0898 48.8071 24.6247 52.3112C28.1553 55.8146 31.959 59.0336 36.0001 61.938ZM45.0201 41.0002C45.0241 42.7788 44.4985 44.5187 43.5097 45.9995C42.521 47.4803 41.1137 48.6355 39.4658 49.3189C37.818 50.0023 36.0037 50.1832 34.2527 49.8386C32.5017 49.494 30.8926 48.6395 29.6291 47.3832C28.3656 46.1269 27.5046 44.5253 27.1549 42.7811C26.8052 41.0369 26.9827 39.2286 27.6648 37.585C28.3469 35.9413 29.503 34.5363 30.9868 33.5477C32.4706 32.5592 34.2153 32.0315 36.0001 32.0315C38.3888 32.0319 40.6798 32.9763 42.3707 34.6576C44.0616 36.3389 45.0144 38.6198 45.0201 41.0002ZM39.8623 41.0002C39.8637 40.2381 39.6383 39.4926 39.2144 38.8583C38.7906 38.2239 38.1874 37.7291 37.4812 37.4365C36.775 37.144 35.9976 37.0668 35.2473 37.2147C34.4971 37.3627 33.8078 37.7291 33.2667 38.2677C32.7255 38.8062 32.3569 39.4927 32.2075 40.2401C32.058 40.9876 32.1345 41.7624 32.4272 42.4665C32.7198 43.1706 33.2156 43.7724 33.8516 44.1956C34.4876 44.6188 35.2354 44.8444 36.0001 44.8439C36.5071 44.8445 37.0091 44.7455 37.4777 44.5526C37.9462 44.3597 38.3719 44.0767 38.7306 43.7197C39.0893 43.3628 39.3739 42.9388 39.5681 42.4722C39.7622 42.0056 39.8622 41.5053 39.8623 41.0002ZM40.5352 17.087C44.2347 19.8338 47.737 22.8348 51.0167 26.0682C54.3006 29.321 57.3531 32.7978 60.1522 36.4733C67.0327 25.3825 68.6549 15.8633 64.9636 12.1972C62.2566 9.50711 56.5864 9.5997 49.3995 12.455C46.5268 13.5986 43.5436 15.2377 40.5352 17.087ZM60.1522 45.5271C57.3517 49.2014 54.2992 52.678 51.0167 55.9322C47.7348 59.1631 44.2326 62.164 40.5352 64.9134C43.5386 66.7652 46.5268 68.4018 49.3995 69.5454C56.5814 72.4057 62.2515 72.4958 64.9636 69.8031C68.6549 66.1371 67.0327 56.6178 60.1522 45.5271Z" fill="#CE582B"/>
</g>
<defs>
<clipPath id="clip0">
<rect width="72" height="82" fill="white"/>
</clipPath>
</defs>
</svg>
