<?xml version="1.0" encoding="utf-8"?>
<!-- Generator: Adobe Illustrator 17.1.0, SVG Export Plug-In . SVG Version: 6.00 Build 0)  -->
<!DOCTYPE svg PUBLIC "-//W3C//DTD SVG 1.1//EN" "http://www.w3.org/Graphics/SVG/1.1/DTD/svg11.dtd">
<svg version="1.1" id="Layer_1" focusable="false" xmlns="http://www.w3.org/2000/svg" xmlns:xlink="http://www.w3.org/1999/xlink"
	 x="0px" y="0px" viewBox="0 0 30 30" enable-background="new 0 0 30 30" xml:space="preserve">
<path fill="#CE582B" d="M29.4,11.7h-4l-7.3-8.1c-0.3-0.3-0.8-0.4-1.2-0.1c-0.3,0.3-0.4,0.8-0.1,1.2l6.2,6.9H6.9l6.2-6.9
	c0.3-0.3,0.3-0.9-0.1-1.2c-0.3-0.3-0.9-0.3-1.2,0.1l-7.3,8.1h-4c-0.3,0-0.6,0.3-0.6,0.6v0.4c0,0.3,0.3,0.6,0.6,0.6h0.9L3,24.5
	c0.2,1.2,1.2,2.2,2.5,2.2h19c1.2,0,2.3-0.9,2.5-2.2l1.6-11.2h0.9c0.3,0,0.6-0.3,0.6-0.6v-0.4C30,11.9,29.7,11.7,29.4,11.7z
	 M25.3,24.3c-0.1,0.4-0.4,0.7-0.8,0.7h-19c-0.4,0-0.8-0.3-0.8-0.7L3.2,13.3h23.7L25.3,24.3z M15.8,16.3v5.8c0,0.5-0.4,0.8-0.8,0.8
	c-0.5,0-0.8-0.4-0.8-0.8v-5.8c0-0.5,0.4-0.8,0.8-0.8C15.5,15.4,15.8,15.8,15.8,16.3z M21.7,16.3v5.8c0,0.5-0.4,0.8-0.8,0.8
	c-0.5,0-0.8-0.4-0.8-0.8v-5.8c0-0.5,0.4-0.8,0.8-0.8C21.3,15.4,21.7,15.8,21.7,16.3z M10,16.3v5.8c0,0.5-0.4,0.8-0.8,0.8
	c-0.5,0-0.8-0.4-0.8-0.8v-5.8c0-0.5,0.4-0.8,0.8-0.8C9.6,15.4,10,15.8,10,16.3z"/>
</svg>
