<?xml version="1.0" encoding="utf-8"?>
<!-- Generator: Adobe Illustrator 17.1.0, SVG Export Plug-In . SVG Version: 6.00 Build 0)  -->
<!DOCTYPE svg PUBLIC "-//W3C//DTD SVG 1.1//EN" "http://www.w3.org/Graphics/SVG/1.1/DTD/svg11.dtd">
<svg version="1.1" id="Layer_1" focusable="false" xmlns="http://www.w3.org/2000/svg" xmlns:xlink="http://www.w3.org/1999/xlink"
	 x="0px" y="0px" viewBox="0 0 30 30" enable-background="new 0 0 30 30" xml:space="preserve">
<path fill="#CE582B" d="M29.3,13.5h-6.8V3.8c0-0.4-0.3-0.8-0.8-0.8H8.3C7.8,3,7.5,3.3,7.5,3.8v9.8H0.8c-0.4,0-0.8,0.3-0.8,0.8v12
	C0,26.7,0.3,27,0.8,27h28.5c0.4,0,0.8-0.3,0.8-0.8v-12C30,13.8,29.7,13.5,29.3,13.5z M21,15h3v2.9l-1.5-0.5L21,17.9V15z M16.5,4.5
	v2.9L15,6.9l-1.5,0.5V4.5H16.5z M9,4.5h3v5l3-1l3,1v-5h3v9H9V4.5z M9,15v2.9l-1.5-0.5L6,17.9V15H9z M1.5,15h3v5l3-1l3,1v-5h3.8v10.5
	H1.5V15z M28.5,25.5H15.8V15h3.8v5l3-1l3,1v-5h3V25.5z"/>
</svg>
