<svg width="49" height="55" viewBox="0 0 69 78" fill="none" xmlns="http://www.w3.org/2000/svg">
<path d="M68.9846 26.8125C68.9846 25.1977 68.5841 23.6133 67.8141 22.1965L60.2518 8.19609C59.5895 6.21562 57.7105 4.875 55.585 4.875H13.415C11.2895 4.875 9.41049 6.21563 8.73281 8.21133L1.17054 22.2117C0.400446 23.6285 0 25.2129 0 26.8277C0.0154018 36.0445 0 68.25 0 68.25C0 70.9465 2.20246 73.125 4.92857 73.125H64.0714C66.7975 73.125 69 70.9465 69 68.25C69 68.25 68.9846 36.0445 68.9846 26.8125ZM55.585 9.75L63.4091 24.375H44.0645L42.2163 9.75H55.585ZM29.5714 29.25H39.4286V39H29.5714V29.25ZM37.2569 9.75L39.1051 24.375H29.8949L31.7431 9.75H37.2569ZM13.415 9.75H26.7837L24.9355 24.375H5.59085L13.415 9.75ZM4.92857 68.25C4.92857 68.25 4.94397 40.6605 4.94397 29.25H24.6429V39C24.6429 41.6965 26.8453 43.875 29.5714 43.875H39.4286C42.1547 43.875 44.3571 41.6965 44.3571 39V29.25H64.056C64.056 40.6605 64.0714 68.25 64.0714 68.25H4.92857Z" fill="#CE582B"/>
</svg>
