<svg width="68" height="55" viewBox="0 0 86 69" fill="none" xmlns="http://www.w3.org/2000/svg">
<path d="M85.4222 22.3441L74.726 3.75996C73.9331 2.38535 72.4953 1.61719 71.0172 1.61719C70.2916 1.61719 69.5525 1.80586 68.8806 2.19668L2.13658 40.807C0.0940783 41.9795 -0.604672 44.6074 0.577828 46.6559L11.2741 65.2266C12.0669 66.6012 13.5047 67.3693 14.9828 67.3693C15.7085 67.3693 16.4475 67.1807 17.1194 66.7898L83.85 28.1795C85.906 27.0205 86.6047 24.3926 85.4222 22.3441ZM14.9828 63.0973L4.28658 44.5131L13.5585 39.1494L19.4441 49.3646C19.7397 49.8768 20.3981 50.0519 20.9088 49.7555L22.7631 48.6773C23.2738 48.3809 23.4485 47.7205 23.1528 47.2084L17.2672 36.9932L24.6847 32.7076L28.4338 39.2033C28.7294 39.7154 29.3878 39.8906 29.8985 39.5941L31.7528 38.516C32.2635 38.2195 32.4381 37.5592 32.1425 37.0471L28.3935 30.5514L35.811 26.2658L41.6966 36.4811C41.9922 36.9932 42.6506 37.1684 43.1613 36.8719L45.0156 35.7937C45.5263 35.4973 45.701 34.8369 45.4053 34.3248L39.5063 24.1365L46.9238 19.851L50.6728 26.3467C50.9685 26.8588 51.6269 27.034 52.1375 26.7375L53.9919 25.6594C54.5025 25.3629 54.6772 24.7025 54.3816 24.1904L50.6325 17.6947L58.05 13.4092L63.9356 23.6244C64.2313 24.1365 64.8897 24.3117 65.4003 24.0152L67.2547 22.9371C67.7653 22.6406 67.94 21.9803 67.6444 21.4682L61.7588 11.2529L71.0306 5.88926L81.7269 24.46L14.9828 63.0973Z" fill="#CE582B"/>
</svg>
