<?xml version="1.0" encoding="utf-8"?>
<!-- Generator: Adobe Illustrator 17.1.0, SVG Export Plug-In . SVG Version: 6.00 Build 0)  -->
<!DOCTYPE svg PUBLIC "-//W3C//DTD SVG 1.1//EN" "http://www.w3.org/Graphics/SVG/1.1/DTD/svg11.dtd">
<svg version="1.1" id="Layer_1" focusable="false" xmlns="http://www.w3.org/2000/svg" xmlns:xlink="http://www.w3.org/1999/xlink"
	 x="0px" y="0px" viewBox="0 0 30 30" enable-background="new 0 0 30 30" xml:space="preserve">
<path fill="#CE582B" d="M11.9,28.3L10.6,28c-0.2,0-0.3-0.2-0.2-0.4l7.3-25.7c0-0.2,0.2-0.3,0.4-0.2l1.3,0.4c0.2,0,0.3,0.2,0.2,0.4
	l-7.3,25.7C12.2,28.3,12.1,28.4,11.9,28.3z M8,21.8l1-1.1c0.1-0.1,0.1-0.3,0-0.4L2.6,15l6.3-5.3C9,9.6,9,9.4,8.9,9.3L8,8.2
	c-0.1-0.1-0.3-0.1-0.4,0l-7.5,6.6c-0.1,0.1-0.1,0.3,0,0.4l7.5,6.6C7.7,21.9,7.9,21.9,8,21.8z M22.4,21.8l7.5-6.6
	c0.1-0.1,0.1-0.3,0-0.4l-7.5-6.6c-0.1-0.1-0.3-0.1-0.4,0l-1,1.1c-0.1,0.1-0.1,0.3,0,0.4l6.3,5.3l-6.3,5.3c-0.1,0.1-0.1,0.3,0,0.4
	l1,1.1C22.1,21.9,22.3,21.9,22.4,21.8z"/>
</svg>
