<svg width="67" height="53" viewBox="0 0 75 60" fill="none" xmlns="http://www.w3.org/2000/svg">
<g clip-path="url(#clip0)">
<path d="M1.875 37.4766C2.90625 37.4766 3.75 36.6328 3.75 35.6016C3.75 34.5703 2.90625 33.7266 1.875 33.7266C0.84375 33.7266 0 34.5703 0 35.6016C0 36.6445 0.84375 37.4766 1.875 37.4766ZM74.0625 15L60.7617 15.0234L54.7617 9.17578C53.6953 8.10938 52.2891 7.52344 50.7891 7.52344H38.9531C37.7344 7.52344 36.5977 7.98047 35.6367 8.69531C34.6523 7.93359 33.4453 7.48828 32.2031 7.48828H24.0586C22.5703 7.48828 21.1406 8.08594 20.0859 9.14062L14.2266 15H0.9375C0.421875 15 0 15.4219 0 15.9375V17.8125C0 18.3281 0.421875 18.75 0.9375 18.75H7.5V41.2383H0.9375C0.421875 41.2383 0 41.6602 0 42.1758V44.0508C0 44.5664 0.421875 44.9883 0.9375 44.9883H7.5C9.5625 44.9883 11.2266 43.3242 11.2383 41.2734H15.1289L24.6797 50.4141C28.1719 53.2383 33.0938 53.1562 36.5156 50.3906L37.3594 51.1172C38.4844 52.0313 39.8555 52.5117 41.2852 52.5117C43.1602 52.5117 44.9297 51.6914 46.1367 50.2148L48.7031 47.0625C50.625 48.1055 53.7305 48.1172 55.7344 45.6562L56.8477 44.2852C57.5742 43.3945 57.9727 42.3398 58.0781 41.2734H63.7734C63.7852 43.3242 65.4609 44.9883 67.5117 44.9883H74.0742C74.5898 44.9883 75.0117 44.5664 75.0117 44.0508V42.1758C75.0117 41.6602 74.5898 41.2383 74.0742 41.2383H67.5117V18.7734L74.0742 18.75C74.5898 18.75 75.0117 18.3281 75.0117 17.8125V15.9375C75 15.4102 74.5781 15 74.0625 15ZM53.9297 41.9062L52.8164 43.2773C52.1836 44.0508 51.0117 44.2266 50.1797 43.5469L48.0937 41.8594L43.2305 47.8359C42.3516 48.9258 40.7695 49.0312 39.7852 48.2344L36.1992 45.1758L34.9805 46.6758C33.0234 49.0781 29.4727 49.4531 27.1758 47.6016L16.6406 37.5117H11.25V18.7383H15.7734L22.7227 11.7891C23.0742 11.4375 23.5547 11.2383 24.0469 11.2383H32.1914C32.2969 11.4961 32.2266 11.3203 32.3203 11.5781L25.4062 17.9297C22.1016 20.9648 21.9375 26.0391 24.9141 29.2852C26.5898 31.1133 31.7812 33.8906 36.2695 29.7773L38.9414 27.3281L53.6602 39.2695C54.457 39.9258 54.5742 41.1094 53.9297 41.9062ZM63.75 37.5117H57.0469C56.7539 37.1016 56.4258 36.7031 56.0156 36.3633L41.7305 24.7617L45.0586 21.7031C45.8203 21 45.8789 19.8164 45.1758 19.0547C44.4727 18.293 43.2891 18.2461 42.5273 18.9375L33.7266 27C32.0391 28.5352 29.2031 28.4062 27.668 26.7422C26.0742 25.0078 26.1797 22.2891 27.9258 20.6836L37.6641 11.7539C38.0156 11.4375 38.4609 11.2617 38.9297 11.2617H50.7656C51.2695 11.2617 51.7383 11.4609 52.1016 11.8242L59.2148 18.75H63.75V37.5117ZM73.125 33.7383C72.0937 33.7383 71.25 34.582 71.25 35.6133C71.25 36.6445 72.0937 37.4883 73.125 37.4883C74.1562 37.4883 75 36.6445 75 35.6133C75 34.5703 74.1562 33.7383 73.125 33.7383Z" fill="#CE582B"/>
</g>
<defs>
<clipPath id="clip0">
<rect width="75" height="60" fill="white"/>
</clipPath>
</defs>
</svg>
