<svg width="50" height="50" viewBox="0 0 79 79" fill="none" xmlns="http://www.w3.org/2000/svg">
<g clip-path="url(#clip0)">
<path d="M72.9053 0C71.8252 0 70.6988 0.231445 69.6342 0.709766C61.8422 4.2123 56.0869 5.38496 51.2574 5.38496C41.0584 5.38496 35.1334 0.0617188 23.3605 0.0617188C18.4848 0.0617188 12.5289 1.06465 4.9375 3.64141V2.46875C4.9375 1.11094 3.82656 0 2.46875 0C1.11094 0 0 1.11094 0 2.46875V77.7656C0 78.4445 0.555469 79 1.23438 79H3.70312C4.38203 79 4.9375 78.4445 4.9375 77.7656V62.2742C11.7574 59.8363 17.5281 58.8797 22.6045 58.8797C35.1334 58.8797 43.8666 64.1875 56.4109 64.1875C61.8576 64.1875 67.9986 63.1846 75.4975 60.3301C77.6576 59.4969 79.0154 57.5682 79.0154 55.516V5.15352C79 2.00586 76.1301 0 72.9053 0ZM56.3955 59.25C44.7307 59.25 35.874 53.9422 22.5891 53.9422C16.9264 53.9422 11.1094 54.9451 4.92207 56.9973V8.82578C12.0197 6.24902 18.0836 4.99922 23.3451 4.99922C34.0688 4.99922 40.0709 10.3225 51.242 10.3225C57.383 10.3225 63.8635 8.70234 71.6246 5.21523C73.075 4.56719 74.0471 5.13809 74.0471 6.0793V55.4697C73.9236 55.8555 64.9744 59.25 56.3955 59.25Z" fill="#CE582B"/>
</g>
<defs>
<clipPath id="clip0">
<rect width="79" height="79" fill="white"/>
</clipPath>
</defs>
</svg>
