<?xml version="1.0" encoding="utf-8"?>
<!-- Generator: Adobe Illustrator 17.1.0, SVG Export Plug-In . SVG Version: 6.00 Build 0)  -->
<!DOCTYPE svg PUBLIC "-//W3C//DTD SVG 1.1//EN" "http://www.w3.org/Graphics/SVG/1.1/DTD/svg11.dtd">
<svg version="1.1" id="Layer_1" focusable="false" xmlns="http://www.w3.org/2000/svg" xmlns:xlink="http://www.w3.org/1999/xlink"
	 x="0px" y="0px" viewBox="0 0 30 30" enable-background="new 0 0 30 30" xml:space="preserve">
<path fill="#CE582B" d="M14,0.4L1.8,4.9C0.7,5.3,0,6.4,0,7.6v13.2c0,1.1,0.6,2,1.6,2.5l12.2,6.1c0.8,0.4,1.7,0.4,2.5,0l12.2-6.1
	c1-0.5,1.6-1.5,1.6-2.5V7.6c0-1.2-0.7-2.2-1.8-2.6L16,0.4C15.4,0.1,14.6,0.1,14,0.4z M15,2l13.1,4.9v0L15,12.6L1.9,6.9v0
	C1.9,6.9,15,2,15,2z M1.9,9l12.2,5.3v13.2L1.9,21.3V9z M15.9,27.4V14.3L28.1,9v12.4C28.1,21.3,15.9,27.4,15.9,27.4z"/>
</svg>
