<?xml version="1.0" encoding="utf-8"?>
<!-- Generator: Adobe Illustrator 17.1.0, SVG Export Plug-In . SVG Version: 6.00 Build 0)  -->
<!DOCTYPE svg PUBLIC "-//W3C//DTD SVG 1.1//EN" "http://www.w3.org/Graphics/SVG/1.1/DTD/svg11.dtd">
<svg version="1.1" id="Layer_1" focusable="false" xmlns="http://www.w3.org/2000/svg" xmlns:xlink="http://www.w3.org/1999/xlink"
	 x="0px" y="0px" viewBox="0 0 30 30" enable-background="new 0 0 30 30" xml:space="preserve">
<path fill="#CE582B" d="M25.4,5.7l-4.9-4.9C20,0.3,19.3,0,18.5,0h-12C5,0,3.8,1.3,3.8,2.8v24.4C3.8,28.7,5,30,6.6,30h16.9
	c1.6,0,2.8-1.3,2.8-2.8V7.7C26.3,7,26,6.3,25.4,5.7z M18.8,1.9c0.2,0,0.3,0.1,0.4,0.2l4.9,4.9c0.1,0.1,0.2,0.3,0.2,0.4h-5.6V1.9z
	 M24.4,27.2c0,0.5-0.4,0.9-0.9,0.9H6.6c-0.5,0-0.9-0.4-0.9-0.9V2.8c0-0.5,0.4-0.9,0.9-0.9h10.3V8c0,0.8,0.6,1.4,1.4,1.4h6.1V27.2z"
	/>
<g>
	<path fill="#CE582B" d="M8.2,18.1c0-0.7,0.2-1.3,0.5-1.7C9,16,9.4,15.8,10,15.8c0.4,0,0.8,0.2,1.1,0.5v-2.3h1.2v6.4h-1.1l-0.1-0.5
		c-0.3,0.4-0.7,0.6-1.2,0.6c-0.5,0-1-0.2-1.3-0.6C8.4,19.4,8.2,18.8,8.2,18.1z M9.4,18.1c0,0.4,0.1,0.7,0.2,1
		c0.1,0.2,0.4,0.3,0.6,0.3c0.4,0,0.6-0.2,0.8-0.5v-1.8c-0.2-0.3-0.4-0.5-0.8-0.5C9.7,16.7,9.4,17.2,9.4,18.1z"/>
	<path fill="#CE582B" d="M13,18.1c0-0.4,0.1-0.8,0.3-1.2c0.2-0.4,0.4-0.6,0.7-0.8s0.7-0.3,1.1-0.3c0.6,0,1.1,0.2,1.5,0.6
		c0.4,0.4,0.6,0.9,0.6,1.5l0,0.3c0,0.7-0.2,1.2-0.6,1.7s-0.9,0.6-1.6,0.6c-0.7,0-1.2-0.2-1.6-0.6C13.2,19.4,13,18.8,13,18.1L13,18.1
		z M14.2,18.1c0,0.4,0.1,0.8,0.2,1c0.2,0.2,0.4,0.3,0.7,0.3c0.3,0,0.5-0.1,0.7-0.3c0.2-0.2,0.2-0.6,0.2-1.1c0-0.4-0.1-0.7-0.2-1
		c-0.2-0.2-0.4-0.3-0.7-0.3c-0.3,0-0.5,0.1-0.7,0.3C14.3,17.3,14.2,17.7,14.2,18.1z"/>
	<path fill="#CE582B" d="M19.9,19.5c0.2,0,0.4-0.1,0.5-0.2c0.1-0.1,0.2-0.3,0.2-0.5h1.1c0,0.3-0.1,0.6-0.3,0.8
		c-0.2,0.3-0.4,0.5-0.7,0.6c-0.3,0.1-0.6,0.2-0.9,0.2c-0.6,0-1.2-0.2-1.5-0.6s-0.6-1-0.6-1.7V18c0-0.7,0.2-1.3,0.6-1.7
		c0.4-0.4,0.9-0.6,1.5-0.6c0.6,0,1,0.2,1.4,0.5c0.3,0.3,0.5,0.7,0.5,1.3h-1.1c0-0.2-0.1-0.4-0.2-0.6c-0.1-0.1-0.3-0.2-0.6-0.2
		c-0.3,0-0.5,0.1-0.6,0.3c-0.1,0.2-0.2,0.5-0.2,1v0.1c0,0.5,0.1,0.8,0.2,1C19.4,19.4,19.6,19.5,19.9,19.5z"/>
</g>
</svg>
