<svg width="40" height="54" viewBox="0 0 59 79" fill="none" xmlns="http://www.w3.org/2000/svg">
<path d="M15.9792 49.375H24.5833V58.0156C24.5833 58.6945 25.1365 59.25 25.8125 59.25H33.1875C33.8635 59.25 34.4167 58.6945 34.4167 58.0156V49.375H43.0208C43.6969 49.375 44.25 48.8195 44.25 48.1406V40.7344C44.25 40.0555 43.6969 39.5 43.0208 39.5H34.4167V30.8594C34.4167 30.1805 33.8635 29.625 33.1875 29.625H25.8125C25.1365 29.625 24.5833 30.1805 24.5833 30.8594V39.5H15.9792C15.3031 39.5 14.75 40.0555 14.75 40.7344V48.1406C14.75 48.8195 15.3031 49.375 15.9792 49.375ZM55.3125 0H3.6875C1.65937 0 0 1.66641 0 3.70312V16.0469C0 18.0836 1.65937 19.75 3.6875 19.75H4.91667V74.0625C4.91667 76.7781 7.12917 79 9.83333 79H49.1667C51.8708 79 54.0833 76.7781 54.0833 74.0625V19.75H55.3125C57.3406 19.75 59 18.0836 59 16.0469V3.70312C59 1.66641 57.3406 0 55.3125 0ZM49.1667 74.0625H9.83333V19.75H49.1667V74.0625ZM54.0833 14.8125H4.91667V4.9375H54.0833V14.8125Z" fill="#CE582B"/>
</svg>
