<svg width="62" height="58" viewBox="0 0 62 58" fill="none" xmlns="http://www.w3.org/2000/svg">
<g clip-path="url(#clip0)">
<path d="M60.2904 33.6219L47.5827 11.7586C44.0838 5.70938 36.311 3.64766 30.2364 7.13672C27.8202 8.53008 26.0651 10.5918 25.0165 12.948C23.5235 7.58984 18.6342 3.625 12.7647 3.625C5.70993 3.625 0 9.30039 0 16.3125V41.6875C0 48.6996 5.70993 54.375 12.7647 54.375C19.8195 54.375 25.5294 48.6996 25.5294 41.6875V24.2422C25.5522 24.2875 25.5636 24.3328 25.5864 24.3781L38.2941 46.2414C41.8044 52.2793 49.5658 54.3523 55.6518 50.8633C61.7379 47.3742 63.8007 39.6598 60.2904 33.6219ZM20.0588 29H5.47059V16.3125C5.47059 6.71758 20.0588 6.71758 20.0588 16.3125V29ZM30.3048 21.6707C25.5066 13.4012 38.0776 6.18516 42.8757 14.4547L47.8676 23.0414L35.2967 30.2574L30.3048 21.6707Z" fill="#CE582B"/>
</g>
<defs>
<clipPath id="clip0">
<rect width="62" height="58" fill="white"/>
</clipPath>
</defs>
</svg>
