<?xml version="1.0" encoding="utf-8"?>
<!-- Generator: Adobe Illustrator 17.1.0, SVG Export Plug-In . SVG Version: 6.00 Build 0)  -->
<!DOCTYPE svg PUBLIC "-//W3C//DTD SVG 1.1//EN" "http://www.w3.org/Graphics/SVG/1.1/DTD/svg11.dtd">
<svg version="1.1" id="Layer_1" focusable="false" xmlns="http://www.w3.org/2000/svg" xmlns:xlink="http://www.w3.org/1999/xlink"
	 x="0px" y="0px" viewBox="0 0 30 30" enable-background="new 0 0 30 30" xml:space="preserve">
<path fill="#CE582B" d="M21.8,18.1l1-1c0.2-0.2,0.5-0.1,0.5,0.2v8.6c0,1.4-1.1,2.5-2.5,2.5H2.5c-1.4,0-2.5-1.1-2.5-2.5V7.5
	C0,6.1,1.1,5,2.5,5h15.2c0.3,0,0.4,0.3,0.2,0.5l-1,1c-0.1,0.1-0.1,0.1-0.2,0.1H2.5C2,6.7,1.7,7,1.7,7.5v18.3c0,0.5,0.4,0.8,0.8,0.8
	h18.3c0.5,0,0.8-0.4,0.8-0.8v-7.5C21.7,18.2,21.7,18.2,21.8,18.1z M29.4,8.1L13.1,24.4L7.9,25c-0.7,0.1-1.3-0.5-1.2-1.2l0.6-5.2
	L23.5,2.3c0.9-0.9,2.2-0.9,3.1,0L29.4,5C30.2,5.9,30.2,7.3,29.4,8.1z M24.5,10.7L21,7.2L8.8,19.3l-0.4,3.9l3.9-0.4
	C12.3,22.8,24.5,10.7,24.5,10.7z M28.2,6.2l-2.7-2.7c-0.2-0.2-0.5-0.2-0.7,0L22.2,6l3.5,3.5L28.2,7C28.4,6.8,28.4,6.4,28.2,6.2z"/>
</svg>
