<svg width="54" height="54" viewBox="0 0 76 76" fill="none" xmlns="http://www.w3.org/2000/svg">
<path d="M14.3238 62.4251H13.0034V53.7263L10.3554 54.6928V53.5076L14.118 52.1037H14.3238V62.4251Z" fill="#CE582B"/>
<path d="M22.4879 62.4251H21.1674V53.7263L18.5194 54.6928V53.5076L22.282 52.1037H22.4879V62.4251Z" fill="#CE582B"/>
<path d="M26.4989 61.7408C26.4989 61.515 26.5651 61.3269 26.6977 61.1764C26.8349 61.0258 27.0384 60.9506 27.3082 60.9506C27.5779 60.9506 27.7815 61.0258 27.9187 61.1764C28.0607 61.3269 28.1317 61.515 28.1317 61.7408C28.1317 61.9571 28.0607 62.1382 27.9187 62.284C27.7815 62.4298 27.5779 62.5027 27.3082 62.5027C27.0384 62.5027 26.8349 62.4298 26.6977 62.284C26.5651 62.1382 26.4989 61.9571 26.4989 61.7408Z" fill="#CE582B"/>
<path d="M34.4854 62.4251H33.165V53.7263L30.517 54.6928V53.5076L34.2795 52.1037H34.4854V62.4251Z" fill="#CE582B"/>
<path d="M38.4964 61.7408C38.4964 61.515 38.5627 61.3269 38.6952 61.1764C38.8325 61.0258 39.036 60.9506 39.3057 60.9506C39.5755 60.9506 39.779 61.0258 39.9163 61.1764C40.0583 61.3269 40.1292 61.515 40.1292 61.7408C40.1292 61.9571 40.0583 62.1382 39.9163 62.284C39.779 62.4298 39.5755 62.5027 39.3057 62.5027C39.036 62.5027 38.8325 62.4298 38.6952 62.284C38.5627 62.1382 38.4964 61.9571 38.4964 61.7408Z" fill="#CE582B"/>
<path d="M48.6482 58.044C48.6482 59.5725 48.3856 60.7084 47.8602 61.4515C47.3349 62.1946 46.5137 62.5662 45.3968 62.5662C44.2941 62.5662 43.4777 62.204 42.9476 61.4797C42.4175 60.7507 42.143 59.6642 42.1241 58.2203V56.4778C42.1241 54.968 42.3868 53.8463 42.9121 53.1125C43.4374 52.3788 44.2609 52.012 45.3826 52.012C46.4948 52.012 47.3136 52.3671 47.8389 53.0773C48.3643 53.7828 48.634 54.8739 48.6482 56.3508V58.044ZM47.3349 56.259C47.3349 55.1538 47.1787 54.3495 46.8663 53.8463C46.554 53.3383 46.0594 53.0843 45.3826 53.0843C44.7106 53.0843 44.2207 53.3359 43.9131 53.8392C43.6055 54.3425 43.4469 55.1161 43.4374 56.1603V58.2485C43.4374 59.3585 43.5984 60.1793 43.9202 60.7107C44.2467 61.2375 44.739 61.5009 45.3968 61.5009C46.0452 61.5009 46.5256 61.2516 46.8379 60.7531C47.155 60.2545 47.3207 59.4691 47.3349 58.3967V56.259Z" fill="#CE582B"/>
<path d="M54.647 62.4251H53.3266V53.7263L50.6786 54.6928V53.5076L54.4411 52.1037H54.647V62.4251Z" fill="#CE582B"/>
<path d="M58.658 61.7408C58.658 61.515 58.7243 61.3269 58.8568 61.1764C58.994 61.0258 59.1976 60.9506 59.4673 60.9506C59.7371 60.9506 59.9406 61.0258 60.0779 61.1764C60.2198 61.3269 60.2908 61.515 60.2908 61.7408C60.2908 61.9571 60.2198 62.1382 60.0779 62.284C59.9406 62.4298 59.7371 62.5027 59.4673 62.5027C59.1976 62.5027 58.994 62.4298 58.8568 62.284C58.7243 62.1382 58.658 61.9571 58.658 61.7408Z" fill="#CE582B"/>
<path d="M66.6446 62.4251H65.3241V53.7263L62.6761 54.6928V53.5076L66.4387 52.1037H66.6446V62.4251Z" fill="#CE582B"/>
<rect x="4" y="3" width="69" height="69" rx="2" stroke="#CE582B" stroke-width="4"/>
<path d="M18.1112 26.6637C18.1112 28.3208 17.7641 29.5883 17.0701 30.4663C16.376 31.3442 15.3599 31.7832 14.0217 31.7832C12.7002 31.7832 11.6897 31.3525 10.9901 30.491C10.2904 29.6295 9.93231 28.3949 9.91565 26.7871V24.5813C9.91565 22.9077 10.2655 21.6374 10.9651 20.7704C11.6702 19.9035 12.6836 19.47 14.0051 19.47C15.3266 19.47 16.3371 19.9007 17.0367 20.7622C17.7364 21.6182 18.0945 22.8501 18.1112 24.4578V26.6637ZM15.7041 24.2438C15.7041 23.2506 15.5653 22.5291 15.2877 22.0791C15.0156 21.6237 14.5881 21.396 14.0051 21.396C13.4387 21.396 13.0195 21.6127 12.7474 22.0462C12.4809 22.4742 12.3393 23.1464 12.3227 24.0627V26.9764C12.3227 27.9532 12.4559 28.6802 12.7224 29.1576C12.9945 29.6295 13.4276 29.8655 14.0217 29.8655C14.6103 29.8655 15.0351 29.6377 15.296 29.1823C15.557 28.7269 15.693 28.03 15.7041 27.0917V24.2438Z" fill="#CE582B"/>
<path d="M27.9058 26.6637C27.9058 28.3208 27.5588 29.5883 26.8647 30.4663C26.1706 31.3442 25.1545 31.7832 23.8164 31.7832C22.4949 31.7832 21.4843 31.3525 20.7847 30.491C20.0851 29.6295 19.7269 28.3949 19.7103 26.7871V24.5813C19.7103 22.9077 20.0601 21.6374 20.7597 20.7704C21.4649 19.9035 22.4782 19.47 23.7997 19.47C25.1212 19.47 26.1318 19.9007 26.8314 20.7622C27.531 21.6182 27.8891 22.8501 27.9058 24.4578V26.6637ZM25.4988 24.2438C25.4988 23.2506 25.36 22.5291 25.0823 22.0791C24.8103 21.6237 24.3827 21.396 23.7997 21.396C23.2334 21.396 22.8141 21.6127 22.5421 22.0462C22.2755 22.4742 22.134 23.1464 22.1173 24.0627V26.9764C22.1173 27.9532 22.2506 28.6802 22.5171 29.1576C22.7892 29.6295 23.2222 29.8655 23.8164 29.8655C24.4049 29.8655 24.8297 29.6377 25.0907 29.1823C25.3516 28.7269 25.4877 28.03 25.4988 27.0917V24.2438Z" fill="#CE582B"/>
<path d="M37.7004 26.6637C37.7004 28.3208 37.3534 29.5883 36.6593 30.4663C35.9653 31.3442 34.9492 31.7832 33.611 31.7832C32.2895 31.7832 31.2789 31.3525 30.5793 30.491C29.8797 29.6295 29.5216 28.3949 29.5049 26.7871V24.5813C29.5049 22.9077 29.8547 21.6374 30.5543 20.7704C31.2595 19.9035 32.2728 19.47 33.5943 19.47C34.9158 19.47 35.9264 19.9007 36.626 20.7622C37.3256 21.6182 37.6838 22.8501 37.7004 24.4578V26.6637ZM35.2934 24.2438C35.2934 23.2506 35.1546 22.5291 34.877 22.0791C34.6049 21.6237 34.1774 21.396 33.5943 21.396C33.028 21.396 32.6088 21.6127 32.3367 22.0462C32.0702 22.4742 31.9286 23.1464 31.9119 24.0627V26.9764C31.9119 27.9532 32.0452 28.6802 32.3117 29.1576C32.5838 29.6295 33.0169 29.8655 33.611 29.8655C34.1996 29.8655 34.6243 29.6377 34.8853 29.1823C35.1463 28.7269 35.2823 28.03 35.2934 27.0917V24.2438Z" fill="#CE582B"/>
<path d="M47.4951 26.6637C47.4951 28.3208 47.148 29.5883 46.454 30.4663C45.7599 31.3442 44.7438 31.7832 43.4056 31.7832C42.0841 31.7832 41.0736 31.3525 40.374 30.491C39.6743 29.6295 39.3162 28.3949 39.2996 26.7871V24.5813C39.2996 22.9077 39.6494 21.6374 40.349 20.7704C41.0541 19.9035 42.0675 19.47 43.389 19.47C44.7105 19.47 45.721 19.9007 46.4207 20.7622C47.1203 21.6182 47.4784 22.8501 47.4951 24.4578V26.6637ZM45.088 24.2438C45.088 23.2506 44.9492 22.5291 44.6716 22.0791C44.3995 21.6237 43.972 21.396 43.389 21.396C42.8226 21.396 42.4034 21.6127 42.1313 22.0462C41.8648 22.4742 41.7232 23.1464 41.7066 24.0627V26.9764C41.7066 27.9532 41.8398 28.6802 42.1063 29.1576C42.3784 29.6295 42.8115 29.8655 43.4056 29.8655C43.9942 29.8655 44.419 29.6377 44.6799 29.1823C44.9409 28.7269 45.0769 28.03 45.088 27.0917V24.2438Z" fill="#CE582B"/>
<path d="M57.2897 26.6637C57.2897 28.3208 56.9427 29.5883 56.2486 30.4663C55.5545 31.3442 54.5384 31.7832 53.2003 31.7832C51.8788 31.7832 50.8682 31.3525 50.1686 30.491C49.469 29.6295 49.1108 28.3949 49.0942 26.7871V24.5813C49.0942 22.9077 49.444 21.6374 50.1436 20.7704C50.8488 19.9035 51.8621 19.47 53.1836 19.47C54.5051 19.47 55.5157 19.9007 56.2153 20.7622C56.9149 21.6182 57.273 22.8501 57.2897 24.4578V26.6637ZM54.8827 24.2438C54.8827 23.2506 54.7439 22.5291 54.4662 22.0791C54.1942 21.6237 53.7666 21.396 53.1836 21.396C52.6173 21.396 52.198 21.6127 51.926 22.0462C51.6594 22.4742 51.5179 23.1464 51.5012 24.0627V26.9764C51.5012 27.9532 51.6345 28.6802 51.901 29.1576C52.1731 29.6295 52.6061 29.8655 53.2003 29.8655C53.7888 29.8655 54.2136 29.6377 54.4746 29.1823C54.7355 28.7269 54.8716 28.03 54.8827 27.0917V24.2438Z" fill="#CE582B"/>
<path d="M67.0843 26.6637C67.0843 28.3208 66.7373 29.5883 66.0432 30.4663C65.3492 31.3442 64.3331 31.7832 62.9949 31.7832C61.6734 31.7832 60.6628 31.3525 59.9632 30.491C59.2636 29.6295 58.9055 28.3949 58.8888 26.7871V24.5813C58.8888 22.9077 59.2386 21.6374 59.9382 20.7704C60.6434 19.9035 61.6567 19.47 62.9782 19.47C64.2997 19.47 65.3103 19.9007 66.0099 20.7622C66.7095 21.6182 67.0677 22.8501 67.0843 24.4578V26.6637ZM64.6773 24.2438C64.6773 23.2506 64.5385 22.5291 64.2609 22.0791C63.9888 21.6237 63.5613 21.396 62.9782 21.396C62.4119 21.396 61.9927 21.6127 61.7206 22.0462C61.4541 22.4742 61.3125 23.1464 61.2958 24.0627V26.9764C61.2958 27.9532 61.4291 28.6802 61.6956 29.1576C61.9677 29.6295 62.4008 29.8655 62.9949 29.8655C63.5835 29.8655 64.0082 29.6377 64.2692 29.1823C64.5302 28.7269 64.6662 28.03 64.6773 27.0917V24.2438Z" fill="#CE582B"/>
<path d="M9.91565 33.4216H66.6446" stroke="#CE582B" stroke-width="2"/>
</svg>
