<?xml version="1.0" encoding="utf-8"?>
<!-- Generator: Adobe Illustrator 17.1.0, SVG Export Plug-In . SVG Version: 6.00 Build 0)  -->
<!DOCTYPE svg PUBLIC "-//W3C//DTD SVG 1.1//EN" "http://www.w3.org/Graphics/SVG/1.1/DTD/svg11.dtd">
<svg version="1.1" id="Layer_1" focusable="false" xmlns="http://www.w3.org/2000/svg" xmlns:xlink="http://www.w3.org/1999/xlink"
	 x="0px" y="0px" viewBox="0 0 30 30" enable-background="new 0 0 30 30" xml:space="preserve">
<path fill="#CE582B" d="M25.4,5.7l-4.9-4.9C20,0.3,19.3,0,18.5,0h-12C5,0,3.8,1.3,3.8,2.8v24.4C3.8,28.7,5,30,6.6,30h16.9
	c1.6,0,2.8-1.3,2.8-2.8V7.7C26.3,7,26,6.3,25.4,5.7z M18.8,1.9c0.2,0,0.3,0.1,0.4,0.2l4.9,4.9c0.1,0.1,0.2,0.3,0.2,0.4h-5.6V1.9z
	 M24.4,27.2c0,0.5-0.4,0.9-0.9,0.9H6.6c-0.5,0-0.9-0.4-0.9-0.9V2.8c0-0.5,0.4-0.9,0.9-0.9h10.3V8c0,0.8,0.6,1.4,1.4,1.4h6.1V27.2z
	 M15,17.5c1.1-0.5,1.8-1.6,1.8-2.9c0-1.8-1.5-3.3-3.3-3.3H9.8c-0.3,0-0.5,0.2-0.5,0.5v8.4c0,0.3,0.2,0.5,0.5,0.5h0.9
	c0.3,0,0.5-0.2,0.5-0.5v-2.3h1.5l2.8,2.8l-2.3,2.3c-0.2,0.2-0.2,0.5,0,0.7l0.7,0.7c0.2,0.2,0.5,0.2,0.7,0l2.3-2.3l2.3,2.3
	c0.2,0.2,0.5,0.2,0.7,0l0.7-0.7c0.2-0.2,0.2-0.5,0-0.7l-2.3-2.3l2.3-2.3c0.2-0.2,0.2-0.5,0-0.7L19.8,17c-0.2-0.2-0.5-0.2-0.7,0
	l-2.3,2.3L15,17.5z M13.6,15.9h-2.3v-2.8h2.3c0.8,0,1.4,0.6,1.4,1.4C15,15.3,14.4,15.9,13.6,15.9z"/>
</svg>
