<svg width="53" height="53" viewBox="0 0 110 110" fill="none" xmlns="http://www.w3.org/2000/svg">
<path d="M103.118 0H6.88316C0.776223 0 -2.30507 7.40933 2.02167 11.7363L41.25 50.9728V91.0939C41.25 92.0738 41.4594 93.0424 41.8644 93.9347C42.2693 94.8271 42.8603 95.6225 43.5978 96.2678L57.3478 108.295C61.7388 112.137 68.75 109.086 68.75 103.121V50.9728L107.979 11.7363C112.298 7.41814 109.237 0 103.118 0ZM61.875 48.1251V103.125L48.125 91.0939V48.1251L6.87499 6.87501H103.125L61.875 48.1251Z" fill="#CE582B"/>
<circle cx="75.1666" cy="76.389" r="16.5" fill="white"/>
<path d="M74.9757 51.3334C61.24 51.3334 50.1111 62.4623 50.1111 76.198C50.1111 89.9336 61.24 101.063 74.9757 101.063C88.7113 101.063 99.8403 89.9336 99.8403 76.198C99.8403 62.4623 88.7113 51.3334 74.9757 51.3334ZM87.1673 82.7249C87.6386 83.1961 87.6386 83.9581 87.1673 84.4293L83.197 88.3896C82.7258 88.8609 81.9638 88.8609 81.4926 88.3896L74.9757 81.8125L68.4487 88.3896C67.9775 88.8609 67.2155 88.8609 66.7443 88.3896L62.784 84.4193C62.3128 83.9481 62.3128 83.1861 62.784 82.7149L69.3611 76.198L62.784 69.671C62.3128 69.1998 62.3128 68.4378 62.784 67.9666L66.7543 63.9963C67.2255 63.525 67.9875 63.525 68.4587 63.9963L74.9757 70.5834L81.5026 64.0063C81.9738 63.5351 82.7358 63.5351 83.2071 64.0063L87.1774 67.9766C87.6486 68.4478 87.6486 69.2098 87.1774 69.681L80.5903 76.198L87.1673 82.7249Z" fill="#CE582B"/>
</svg>
