<?xml version="1.0" encoding="utf-8"?>
<!-- Generator: Adobe Illustrator 17.1.0, SVG Export Plug-In . SVG Version: 6.00 Build 0)  -->
<!DOCTYPE svg PUBLIC "-//W3C//DTD SVG 1.1//EN" "http://www.w3.org/Graphics/SVG/1.1/DTD/svg11.dtd">
<svg version="1.1" id="Layer_1" xmlns="http://www.w3.org/2000/svg" xmlns:xlink="http://www.w3.org/1999/xlink" x="0px" y="0px"
	 viewBox="0 0 30 30" enable-background="new 0 0 30 30" xml:space="preserve">
<path fill="#CE582B" d="M29.4,3.2L18.7,13.9v2.8c-0.8,0.3-1.4,0.8-1.9,1.5v-5.1L28.1,1.9H1.9l11.3,11.3v11.7l3.8,3.3v-4.6
	c0.5,0.7,1.1,1.2,1.9,1.5v3.1c0,1.6-1.9,2.5-3.1,1.4l-3.8-3.3c-0.2-0.2-0.4-0.4-0.5-0.6c-0.1-0.2-0.2-0.5-0.2-0.8V13.9L0.6,3.2
	C-0.6,2,0.2,0,1.9,0h26.2C29.8,0,30.6,2,29.4,3.2z M27.2,20.8c0,3.7-3,6.8-6.8,6.8s-6.8-3-6.8-6.8s3-6.8,6.8-6.8S27.2,17,27.2,20.8z
	 M22,20.8l1.8-1.8c0.1-0.1,0.1-0.3,0-0.5l-1.1-1.1c-0.1-0.1-0.3-0.1-0.5,0l-1.8,1.8l-1.8-1.8c-0.1-0.1-0.3-0.1-0.5,0l-1.1,1.1
	c-0.1,0.1-0.1,0.3,0,0.5l1.8,1.8l-1.8,1.8c-0.1,0.1-0.1,0.3,0,0.5l1.1,1.1c0.1,0.1,0.3,0.1,0.5,0l1.8-1.8l1.8,1.8
	c0.1,0.1,0.3,0.1,0.5,0l1.1-1.1c0.1-0.1,0.1-0.3,0-0.5L22,20.8z"/>
</svg>
