<?xml version="1.0" encoding="utf-8"?>
<!-- Generator: Adobe Illustrator 17.1.0, SVG Export Plug-In . SVG Version: 6.00 Build 0)  -->
<!DOCTYPE svg PUBLIC "-//W3C//DTD SVG 1.1//EN" "http://www.w3.org/Graphics/SVG/1.1/DTD/svg11.dtd">
<svg version="1.1" id="Layer_1" focusable="false" xmlns="http://www.w3.org/2000/svg" xmlns:xlink="http://www.w3.org/1999/xlink"
	 x="0px" y="0px" viewBox="0 0 30 30" enable-background="new 0 0 30 30" xml:space="preserve">
<path fill="#CE582B" d="M27.5,13.3H25v-2.5c0-1.4-1.1-2.5-2.5-2.5h-8.3L10.8,5H2.5C1.1,5,0,6.1,0,7.5v15C0,23.9,1.1,25,2.5,25h20.1
	c1.5,0,2.8-0.8,3.6-2l3.5-5.9C30.6,15.5,29.4,13.3,27.5,13.3z M2.5,6.7h7.6l3.3,3.3h9c0.5,0,0.8,0.4,0.8,0.8v2.5H8.9
	c-1.5,0-2.8,0.8-3.6,2l-3.7,6.1v-14C1.7,7,2,6.7,2.5,6.7z M28.2,16.3l-3.5,5.9c-0.5,0.8-1.3,1.2-2.1,1.2H2.3l4.3-7.1
	C7.1,15.5,7.9,15,8.8,15h18.7C28.1,15,28.5,15.7,28.2,16.3z"/>
</svg>
