<svg width="53" height="53" viewBox="0 0 66 66" fill="none" xmlns="http://www.w3.org/2000/svg">
<g clip-path="url(#clip0)">
<path d="M65.7025 10.5047L55.4932 0.295312C55.0935 -0.104297 54.4361 -0.104297 54.0365 0.295312L52.5799 1.75195C52.1803 2.15156 52.1803 2.80898 52.5799 3.20859L56.2279 6.85664L50.3885 12.6961L43.0924 5.4L40.901 3.20859C40.5014 2.80898 39.8439 2.80898 39.4443 3.20859L37.9877 4.66523C37.5881 5.06484 37.5881 5.72227 37.9877 6.12187L40.1791 8.31328L10.8916 37.6008C8.66151 39.8309 7.59159 42.8988 7.92675 46.0312L8.84198 54.2297L0.295496 62.7762C-0.104114 63.1758 -0.104114 63.8332 0.295496 64.2328L1.75214 65.6894C2.15175 66.0891 2.80917 66.0891 3.20878 65.6894L11.7553 57.143L19.9537 58.0582C23.0346 58.3934 26.1283 57.3621 28.3842 55.0934L57.6717 25.8059L59.8631 27.9973C60.2627 28.3969 60.9201 28.3969 61.3197 27.9973L62.7764 26.5535C63.176 26.1539 63.176 25.4965 62.7764 25.0969L53.3017 15.6223L59.1412 9.78281L62.7892 13.4309C63.1889 13.8305 63.8463 13.8305 64.2459 13.4309L65.7025 11.9742C66.1021 11.5617 66.1021 10.9172 65.7025 10.5047ZM54.7584 22.9055L25.4838 52.193C24.1432 53.5336 22.3127 54.1781 20.4307 53.9719L12.8896 53.134L12.0517 45.593C11.8455 43.7109 12.49 41.8676 13.8307 40.5398L16.8599 37.5105L21.9646 42.6152C22.3642 43.0148 23.0217 43.0148 23.4213 42.6152L24.8779 41.1586C25.2775 40.759 25.2775 40.1016 24.8779 39.7019L19.7732 34.5973L25.6127 28.7578L30.7174 33.8625C31.117 34.2621 31.7744 34.2621 32.174 33.8625L33.6306 32.4059C34.0303 32.0062 34.0303 31.3488 33.6306 30.9492L28.526 25.8445L34.3654 20.0051L39.4701 25.1098C39.8697 25.5094 40.5271 25.5094 40.9267 25.1098L42.3834 23.6531C42.783 23.2535 42.783 22.5961 42.3834 22.1965L37.2529 17.066L43.0924 11.2266L54.7584 22.9055Z" fill="#CE582B"/>
</g>
<defs>
<clipPath id="clip0">
<rect width="66" height="66" fill="white"/>
</clipPath>
</defs>
</svg>
