<?xml version="1.0" encoding="utf-8"?>
<!-- Generator: Adobe Illustrator 17.1.0, SVG Export Plug-In . SVG Version: 6.00 Build 0)  -->
<!DOCTYPE svg PUBLIC "-//W3C//DTD SVG 1.1//EN" "http://www.w3.org/Graphics/SVG/1.1/DTD/svg11.dtd">
<svg version="1.1" id="Layer_1" focusable="false" xmlns="http://www.w3.org/2000/svg" xmlns:xlink="http://www.w3.org/1999/xlink"
	 x="0px" y="0px" viewBox="0 0 30 30" enable-background="new 0 0 30 30" xml:space="preserve">
<path fill="#CE582B" d="M15,2.3C22,2.3,27.7,8,27.7,15c0,7-5.7,12.7-12.7,12.7C8,27.7,2.3,22,2.3,15C2.3,8,8,2.3,15,2.3 M15,0.5
	C7,0.5,0.5,7,0.5,15C0.5,23,7,29.5,15,29.5S29.5,23,29.5,15C29.5,7,23,0.5,15,0.5z M12.9,20.6h0.7v-7h-0.7c-0.4,0-0.7-0.3-0.7-0.7
	v-0.5c0-0.4,0.3-0.7,0.7-0.7h2.8c0.4,0,0.7,0.3,0.7,0.7v8.2h0.7c0.4,0,0.7,0.3,0.7,0.7v0.5c0,0.4-0.3,0.7-0.7,0.7h-4.2
	c-0.4,0-0.7-0.3-0.7-0.7v-0.5C12.2,20.9,12.5,20.6,12.9,20.6z M15,6.6c-1,0-1.9,0.8-1.9,1.9s0.8,1.9,1.9,1.9s1.9-0.8,1.9-1.9
	S16,6.6,15,6.6z"/>
</svg>
