<?xml version="1.0" encoding="utf-8"?>
<!-- Generator: Adobe Illustrator 17.1.0, SVG Export Plug-In . SVG Version: 6.00 Build 0)  -->
<!DOCTYPE svg PUBLIC "-//W3C//DTD SVG 1.1//EN" "http://www.w3.org/Graphics/SVG/1.1/DTD/svg11.dtd">
<svg version="1.1" id="Layer_1" xmlns="http://www.w3.org/2000/svg" xmlns:xlink="http://www.w3.org/1999/xlink" x="0px" y="0px"
	 viewBox="-121.7 75.5 68 70.5" enable-background="new -121.7 75.5 68 70.5" xml:space="preserve">
<g>
	<path fill="#CE582B" d="M-79,130.3l-1.1-1.1c-0.4-0.4-0.9-0.6-1.4-0.6h-1.1l-2.6-2.3c-0.5-0.4-1.1-0.7-1.8-0.7h-1.9
		c-0.5,0-1,0.1-1.4,0.4l-2.6,1.6c-0.8,0.5-1.3,1.4-1.3,2.4v1.5c0,0.9,0.4,1.7,1.1,2.2l1.3,1c0.5,0.4,1.5,0.7,2.2,0.7h1.2
		c0.5,0,1,0.4,1,1v0.4c4.3-0.2,8.1-2.7,10-6.3h-0.8C-78.5,130.6-78.8,130.5-79,130.3z"/>
	<path fill="#CE582B" d="M-93,118.7l0.6-0.6c0.1-0.1,0.2-0.3,0.2-0.5v-1c0-0.4-0.3-0.7-0.7-0.7c-0.2,0-0.4,0.1-0.5,0.2l-1.5,1.5
		c-0.1,0.1-0.2,0.3-0.2,0.5c0,0.4,0.3,0.7,0.7,0.7h1C-93.3,118.9-93.1,118.9-93,118.7z"/>
	<path fill="#CE582B" d="M-88,112.6c-0.1,0-0.2,0-0.3,0l-1.8,1.3c-0.1,0.1-0.2,0.2-0.2,0.4v1.2c0,0.3,0.2,0.5,0.5,0.5h1
		c0.3,0,0.5-0.2,0.5-0.5V115l1-1h1.3c0.4,0,0.7,0.3,0.7,0.7c0,0.2-0.1,0.4-0.2,0.5l-1.6,1.6c-0.1,0.1-0.2,0.1-0.3,0.2l-2.4,0.8
		c-0.2,0.1-0.3,0.3-0.3,0.5c0,0.4-0.2,0.8-0.4,1.1l-1.2,1.2c-0.2,0.2-0.3,0.4-0.3,0.7v1.5c0,0.5,0.4,1,1,1h1.3
		c0.4,0,0.7-0.2,0.9-0.5l0.6-1.1c0.1-0.2,0.3-0.3,0.4-0.3h0.2c0.3,0,0.5,0.2,0.5,0.5c0,0.3,0.2,0.5,0.5,0.5h1c0.3,0,0.5-0.2,0.5-0.5
		v-0.1c0-0.2,0.1-0.4,0.3-0.5l1.9-0.6c0.4-0.1,0.7-0.5,0.7-0.9v-0.3c0-0.5,0.4-1,1-1h2.2c0.4,0,0.7,0.3,0.7,0.7v0.6
		c0,0.4-0.3,0.7-0.7,0.7h-1.9c-0.2,0-0.4,0.1-0.5,0.2l-0.6,0.6c-0.1,0.1-0.2,0.3-0.2,0.5c0,0.4,0.3,0.7,0.7,0.7h1
		c0.2,0,0.4,0.1,0.5,0.2l0.6,0.6c0.1,0.1,0.2,0.3,0.2,0.5v0.5l-0.8,0.8c-0.3,0.3-0.3,0.7,0,1l1.9,2c0.2,0.2,0.4,0.3,0.7,0.3h1.2
		c0.4-1.2,0.7-2.5,0.7-3.9C-75.8,118-81.3,112.6-88,112.6z"/>
	<path fill="#CE582B" d="M-62.6,129.3l-17.7-23.1V83.7h3.1c0.4,0,0.7-0.3,0.7-0.7v-2.4c0-0.4-0.3-0.7-0.7-0.7h-15.3h-6.4
		c-0.4,0-0.7,0.3-0.7,0.7V83c0,0.4,0.3,0.7,0.7,0.7h3.1v22.5l-17.7,23.1c-3.8,5-0.3,12.2,6,12.2h38.7
		C-62.4,141.5-58.8,134.3-62.6,129.3z M-88,139.8c-8.3,0-15.1-6.7-15.1-15.1c0-8.3,6.7-15.1,15.1-15.1c8.3,0,15.1,6.7,15.1,15.1
		C-72.9,133.1-79.7,139.8-88,139.8z"/>
</g>
</svg>
