<svg width="63" height="50" viewBox="0 0 76 61" fill="none" xmlns="http://www.w3.org/2000/svg">
<path d="M75.05 0H73.15C72.6275 0 72.2 0.488477 72.2 1.08418V22.875H64.6V5.71875C64.6 4.67031 63.745 3.8125 62.7 3.8125H43.7C42.655 3.8125 41.8 4.67031 41.8 5.71875V22.875H3.8V1.08418C3.8 0.488477 3.3725 0 2.85 0H0.95C0.4275 0 0 0.488477 0 1.08418V61H3.8V57.1875H72.2V61H76V1.08418C76 0.488477 75.5725 0 75.05 0ZM45.6 7.625H60.8V22.875H45.6V7.625ZM30.4 53.375H15.2V38.125H30.4V53.375ZM34.2 53.375V38.125H49.4V53.375H34.2ZM72.2 53.375H53.2V36.2188C53.2 35.1703 52.345 34.3125 51.3 34.3125H13.3C12.255 34.3125 11.4 35.1703 11.4 36.2188V53.375H3.8V26.6875H72.2V53.375Z" fill="#CE582B"/>
</svg>
