<?xml version="1.0" encoding="utf-8"?>
<!-- Generator: Adobe Illustrator 17.1.0, SVG Export Plug-In . SVG Version: 6.00 Build 0)  -->
<!DOCTYPE svg PUBLIC "-//W3C//DTD SVG 1.1//EN" "http://www.w3.org/Graphics/SVG/1.1/DTD/svg11.dtd">
<svg version="1.1" id="Layer_1" focusable="false" xmlns="http://www.w3.org/2000/svg" xmlns:xlink="http://www.w3.org/1999/xlink"
	 x="0px" y="0px" viewBox="0 0 30 30" enable-background="new 0 0 30 30" xml:space="preserve">
<path fill="#CE582B" d="M19.7,1.9c4.7,0,8.4,3.8,8.4,8.4s-3.8,8.4-8.4,8.4c-1.1,0-2.2-0.2-3.1-0.6l-2.5,2.5h-2.8v3.8H7.5v3.8H1.9
	v-4.7l10-10c-0.4-1-0.6-2-0.6-3.1C11.3,5.7,15,1.9,19.7,1.9 M19.7,0C14,0,9.4,4.6,9.4,10.3c0,0.9,0.1,1.8,0.3,2.6l-9.3,9.3
	c-0.3,0.3-0.4,0.6-0.4,1v5.4C0,29.4,0.6,30,1.4,30H8c0.8,0,1.4-0.6,1.4-1.4v-2.3h2.3c0.8,0,1.4-0.6,1.4-1.4v-2.3h1.1
	c0.4,0,0.7-0.1,1-0.4l1.8-1.8c0.9,0.2,1.7,0.3,2.6,0.3C25.4,20.6,30,16,30,10.3C30,4.6,25.4,0,19.7,0z M22.5,6.3
	c0.6,0,1.2,0.5,1.2,1.2s-0.5,1.2-1.2,1.2s-1.2-0.5-1.2-1.2S21.9,6.3,22.5,6.3 M22.5,4.7c-1.6,0-2.8,1.3-2.8,2.8s1.3,2.8,2.8,2.8
	s2.8-1.3,2.8-2.8S24.1,4.7,22.5,4.7z"/>
</svg>
