<?xml version="1.0" encoding="utf-8"?>
<!-- Generator: Adobe Illustrator 17.1.0, SVG Export Plug-In . SVG Version: 6.00 Build 0)  -->
<!DOCTYPE svg PUBLIC "-//W3C//DTD SVG 1.1//EN" "http://www.w3.org/Graphics/SVG/1.1/DTD/svg11.dtd">
<svg version="1.1" id="Layer_1" focusable="false" xmlns="http://www.w3.org/2000/svg" xmlns:xlink="http://www.w3.org/1999/xlink"
	 x="0px" y="0px" viewBox="0 0 30 30" enable-background="new 0 0 30 30" xml:space="preserve">
<path fill="#CE582B" d="M30,15c0-0.6-0.3-1.1-0.9-1.3l-5.8-2.5l5.8-2.5C29.7,8.4,30,7.8,30,7.3s-0.3-1.1-0.9-1.3L15.9,0.2
	c-0.6-0.3-1.3-0.3-1.9,0L0.9,5.9C0.3,6.1,0,6.7,0,7.3s0.3,1.1,0.9,1.3l5.8,2.5l-5.8,2.5C0.3,13.9,0,14.4,0,15c0,0.6,0.3,1.1,0.9,1.3
	l5.8,2.5l-5.8,2.5C0.3,21.6,0,22.2,0,22.7c0,0.6,0.3,1.1,0.9,1.3l13.2,5.7c0.3,0.1,0.6,0.2,0.9,0.2c0.3,0,0.6-0.1,0.9-0.2l13.2-5.7
	c0.5-0.2,0.9-0.8,0.9-1.3c0-0.6-0.3-1.1-0.9-1.3l-5.8-2.5l5.8-2.5C29.7,16.1,30,15.6,30,15z M2.7,7.3L14.8,2l0,0c0.1,0,0.2,0,0.3,0
	l12.2,5.3l-12.2,5.3c-0.1,0-0.2,0-0.3,0L2.7,7.3z M27.3,22.7L15.2,28c-0.1,0-0.2,0-0.3,0L2.7,22.7l6.5-2.8l4.9,2.1
	c0.3,0.1,0.6,0.2,0.9,0.2c0.3,0,0.6-0.1,0.9-0.2l4.9-2.1C20.9,19.9,27.3,22.7,27.3,22.7z M15.2,20.3c-0.1,0-0.2,0-0.3,0L2.7,15
	l6.5-2.8l4.9,2.1c0.3,0.1,0.6,0.2,0.9,0.2c0.3,0,0.6-0.1,0.9-0.2l4.9-2.1l6.5,2.8C27.3,15,15.2,20.3,15.2,20.3z"/>
</svg>
