<svg width="59" height="59" viewBox="0 0 85 85" fill="none" xmlns="http://www.w3.org/2000/svg">
<path d="M83.6719 39.8438H74.2405C72.9605 24.3645 60.6355 12.0395 45.1562 10.7595V1.32812C45.1562 0.594336 44.5619 0 43.8281 0H41.1719C40.4381 0 39.8438 0.594336 39.8438 1.32812V10.7595C24.3645 12.0395 12.0395 24.3645 10.7595 39.8438H1.32812C0.594336 39.8438 0 40.4381 0 41.1719V43.8281C0 44.5619 0.594336 45.1562 1.32812 45.1562H10.7595C12.0395 60.6355 24.3645 72.9605 39.8438 74.2405V83.6719C39.8438 84.4057 40.4381 85 41.1719 85H43.8281C44.5619 85 45.1562 84.4057 45.1562 83.6719V74.2405C60.6355 72.9605 72.9605 60.6355 74.2405 45.1562H83.6719C84.4057 45.1562 85 44.5619 85 43.8281V41.1719C85 40.4381 84.4057 39.8438 83.6719 39.8438ZM42.5 69.0625C27.8541 69.0625 15.9375 57.1459 15.9375 42.5C15.9375 27.8541 27.8541 15.9375 42.5 15.9375C57.1459 15.9375 69.0625 27.8541 69.0625 42.5C69.0625 57.1459 57.1459 69.0625 42.5 69.0625ZM42.5 26.5625C33.6979 26.5625 26.5625 33.6979 26.5625 42.5C26.5625 51.3021 33.6979 58.4375 42.5 58.4375C51.3021 58.4375 58.4375 51.3021 58.4375 42.5C58.4375 33.6979 51.3021 26.5625 42.5 26.5625ZM42.5 53.125C36.6413 53.125 31.875 48.3587 31.875 42.5C31.875 36.6413 36.6413 31.875 42.5 31.875C48.3587 31.875 53.125 36.6413 53.125 42.5C53.125 48.3587 48.3587 53.125 42.5 53.125Z" fill="#CE582B"/>
</svg>
