<svg width="64" height="52" viewBox="0 0 82 66" fill="none" xmlns="http://www.w3.org/2000/svg">
<g clip-path="url(#clip0)">
<path d="M81.2823 48.3514L67.3102 25.6678C66.9041 25.0555 66.2519 24.75 65.5998 24.75C64.9476 24.75 64.2955 25.0568 63.8893 25.6678L49.9173 48.3514C49.4214 49.0965 49.137 49.9911 49.2113 50.8832C49.9121 59.3484 56.9821 66 65.5998 66C74.2187 66 81.2887 59.3484 81.9882 50.8832C82.0613 49.9911 81.7781 49.0965 81.2823 48.3514ZM65.5946 30.7106L77.1656 49.5H53.943L65.5946 30.7106ZM65.5998 61.875C60.3108 61.875 55.7341 58.4242 54.0147 53.625H77.231C75.5359 58.3778 70.9272 61.875 65.5998 61.875ZM67.8919 20.9846L68.5428 19.0291C68.7222 18.489 68.4326 17.9051 67.8958 17.7246L48.6181 11.2342C48.9858 10.3099 49.1998 9.30832 49.1998 8.25C49.1998 3.69316 45.529 0 40.9998 0C37.2431 0 34.1105 2.55621 33.1406 6.02379L15.4055 0.0541406C14.8687 -0.126328 14.2883 0.165 14.1089 0.705117L13.458 2.66062C13.2786 3.20074 13.5682 3.78469 14.105 3.96516L33.1047 10.3615C33.8619 13.2271 36.0939 15.4636 38.9498 16.2087V61.875H13.3248C12.7584 61.875 12.2998 62.3365 12.2998 62.9062V64.9688C12.2998 65.5385 12.7584 66 13.3248 66H42.0248C42.5911 66 43.0498 65.5385 43.0498 64.9688V16.2087C44.1568 15.9199 45.1638 15.4069 46.0376 14.7159L66.5953 21.6356C67.1309 21.8161 67.7113 21.5248 67.8919 20.9846ZM40.9998 12.375C38.7396 12.375 36.8998 10.5239 36.8998 8.25C36.8998 5.97609 38.7396 4.125 40.9998 4.125C43.2599 4.125 45.0998 5.97609 45.0998 8.25C45.0998 10.5239 43.2599 12.375 40.9998 12.375ZM32.7882 34.3832C32.8625 33.4911 32.5781 32.5965 32.0823 31.8514L18.1102 9.16781C17.7041 8.5568 17.0519 8.25 16.3998 8.25C15.7476 8.25 15.0954 8.5568 14.6893 9.16781L0.717256 31.8514C0.221412 32.5965 -0.0630256 33.4911 0.0112869 34.3832C0.712131 42.8484 7.78207 49.5 16.3998 49.5C25.0175 49.5 32.0874 42.8484 32.7882 34.3832ZM16.3946 14.2106L27.9656 33H4.74294L16.3946 14.2106ZM4.81469 37.125H28.031C26.3359 41.8778 21.7272 45.375 16.3998 45.375C11.1108 45.375 6.53413 41.9242 4.81469 37.125Z" fill="#CE582B"/>
</g>
<defs>
<clipPath id="clip0">
<rect width="82" height="66" fill="white"/>
</clipPath>
</defs>
</svg>
