<svg width="55" height="55" viewBox="0 0 80 80" fill="none" xmlns="http://www.w3.org/2000/svg">
<path d="M70 10H59.8734C55.3047 3.96563 48.1359 0 40 0C31.8641 0 24.6953 3.96563 20.1266 10H10C4.48594 10 0 14.4859 0 20V70C0 75.5141 4.48594 80 10 80H70C75.5141 80 80 75.5141 80 70V20C80 14.4859 75.5141 10 70 10ZM40 5C51.0453 5 60 13.9547 60 25C60 36.0453 51.0453 45 40 45C28.9547 45 20 36.0453 20 25C20 13.9547 28.9547 5 40 5ZM75 70C75 72.7609 72.7609 75 70 75H10C7.23906 75 5 72.7609 5 70V20C5 17.2391 7.23906 15 10 15H17.1187C15.7719 18.0672 15 21.4406 15 25C15 38.7844 26.2156 50 40 50C53.7844 50 65 38.7844 65 25C65 21.4406 64.2281 18.0672 62.8812 15H70C72.7609 15 75 17.2391 75 20V70ZM40 40C44.1359 40 47.5 36.6359 47.5 32.5C47.5 30.325 46.5547 28.3812 45.0719 27.0109L49.7969 15.9844C50.3406 14.7172 49.7531 13.2469 48.4828 12.7031C47.2203 12.1594 45.7453 12.7453 45.2016 14.0172L40.4734 25.0484C34.9328 24.6875 32.5 29.4766 32.5 32.5C32.5 36.6359 35.8641 40 40 40ZM40 30C41.3812 30 42.5 31.1187 42.5 32.5C42.5 33.8812 41.3812 35 40 35C38.6188 35 37.5 33.8812 37.5 32.5C37.5 31.1187 38.6188 30 40 30Z" fill="#CE582B"/>
</svg>
