<svg width="40" height="54" viewBox="0 0 67 90" fill="none" xmlns="http://www.w3.org/2000/svg">
<path d="M62.8125 0H4.1875C1.88438 0 0 1.89844 0 4.21875V18.2812C0 20.6016 1.88438 22.5 4.1875 22.5H5.58333V84.375C5.58333 87.4688 8.09583 90 11.1667 90H55.8333C58.9042 90 61.4167 87.4688 61.4167 84.375V22.5H62.8125C65.1156 22.5 67 20.6016 67 18.2812V4.21875C67 1.89844 65.1156 0 62.8125 0ZM55.8333 84.375H11.1667V73.125H26.5208C27.2885 73.125 27.9167 72.4922 27.9167 71.7188V68.9062C27.9167 68.1328 27.2885 67.5 26.5208 67.5H11.1667V56.25H26.5208C27.2885 56.25 27.9167 55.6172 27.9167 54.8438V52.0312C27.9167 51.2578 27.2885 50.625 26.5208 50.625H11.1667V39.375H26.5208C27.2885 39.375 27.9167 38.7422 27.9167 37.9688V35.1562C27.9167 34.3828 27.2885 33.75 26.5208 33.75H11.1667V22.5H55.8333V84.375ZM61.4167 16.875H5.58333V5.625H61.4167V16.875Z" fill="#CE582B"/>
</svg>
