<svg width="60" height="60" viewBox="0 0 84 84" fill="none" xmlns="http://www.w3.org/2000/svg">
<path d="M76.1119 30.3615L65.7891 26.8654C63.6563 26.1419 62.0977 24.6374 61.6219 22.8409L59.161 13.6272C58.1306 9.79139 54.9675 6.83335 50.6953 5.7128C45.9867 4.48233 41.0435 5.74233 37.8345 9.02358L30.7388 16.2899C29.231 17.8288 26.8833 18.6524 24.4847 18.449L13.4302 17.5926C8.29338 17.1955 3.51588 19.5794 1.26002 23.6629C-0.656229 27.1394 -0.37076 31.149 2.03932 34.3926L7.96525 42.3808C9.08252 43.8885 9.25807 45.6768 8.44268 47.2895L4.06877 55.9733C2.31658 59.4548 2.71525 63.3988 5.13518 66.5275C8.06369 70.3108 13.2054 72.0482 18.27 70.9572L29.0391 68.6373C31.4245 68.1238 33.8904 68.6242 35.6951 69.9613L44.0459 76.1809C46.3491 77.8648 49.1318 78.7653 51.9849 78.7501C53.9489 78.7524 55.8907 78.3339 57.6795 77.523C61.5251 75.774 63.9959 72.437 64.2879 68.6062L65.0163 59.1791C65.1492 57.3958 66.3748 55.7469 68.2976 54.7724L77.8345 49.9375C81.9148 47.867 84.2674 43.9951 83.9754 39.8345C83.6719 35.5328 80.6531 31.9054 76.1119 30.3615ZM75.4556 45.2568L65.9187 50.0917C62.3503 51.9046 60.0535 55.153 59.7828 58.787L59.0625 68.2058C58.8574 70.9391 56.5146 72.2894 55.5155 72.7455C52.7724 73.9973 49.501 73.7003 47.1844 71.9727L38.827 65.7498C36.586 64.0846 33.7411 63.1921 30.8602 63.1921C29.8762 63.191 28.895 63.2955 27.9333 63.5038L17.1708 65.8319C13.3974 66.6522 10.5837 64.9804 9.2958 63.3119C8.61002 62.4259 7.63057 60.5966 8.76752 58.3342L13.125 49.6553C14.8428 46.2559 14.4884 42.3709 12.1767 39.2521L6.25408 31.2639C4.65939 29.1163 5.32057 27.1738 5.85377 26.2058C7.12525 23.909 10.0111 22.6129 13.02 22.8278L24.0746 23.6842C28.0629 23.991 31.9135 22.5998 34.4925 19.9583L41.5866 12.6969C43.4536 10.7873 46.5199 10.0408 49.3828 10.7938C51.8028 11.4271 53.5713 12.9939 54.0996 14.984L56.5606 24.1944C57.499 27.6939 60.3242 30.5486 64.1222 31.8381L74.4319 35.3359C76.9798 36.1989 78.5958 38.02 78.7484 40.2069C78.8845 42.2528 77.6541 44.1412 75.4556 45.2568ZM26.25 31.5001C25.2117 31.5001 24.1966 31.8081 23.3333 32.3849C22.4699 32.9618 21.797 33.7817 21.3997 34.7411C21.0023 35.7004 20.8983 36.756 21.1009 37.7744C21.3035 38.7928 21.8035 39.7282 22.5377 40.4625C23.2719 41.1967 24.2074 41.6967 25.2258 41.8993C26.2442 42.1018 27.2998 41.9979 28.2591 41.6005C29.2184 41.2032 30.0384 40.5302 30.6152 39.6669C31.1921 38.8035 31.5 37.7885 31.5 36.7501C31.5 35.3578 30.9469 34.0224 29.9623 33.0378C28.9778 32.0533 27.6424 31.5001 26.25 31.5001ZM47.25 47.2501C46.2117 47.2501 45.1966 47.558 44.3333 48.1349C43.4699 48.7118 42.797 49.5317 42.3997 50.4911C42.0023 51.4504 41.8983 52.506 42.1009 53.5244C42.3035 54.5428 42.8035 55.4782 43.5377 56.2125C44.2719 56.9467 45.2074 57.4467 46.2258 57.6493C47.2442 57.8518 48.2998 57.7479 49.2591 57.3505C50.2184 56.9532 51.0384 56.2802 51.6152 55.4169C52.1921 54.5535 52.5 53.5385 52.5 52.5001C52.5 51.1078 51.9469 49.7724 50.9623 48.7878C49.9778 47.8033 48.6424 47.2501 47.25 47.2501ZM49.875 31.5001C49.3558 31.5001 48.8483 31.6541 48.4166 31.9425C47.985 32.231 47.6485 32.6409 47.4498 33.1206C47.2512 33.6003 47.1992 34.1281 47.3005 34.6373C47.4017 35.1465 47.6517 35.6142 48.0189 35.9813C48.386 36.3484 48.8537 36.5984 49.3629 36.6997C49.8721 36.801 50.3999 36.749 50.8796 36.5503C51.3592 36.3516 51.7692 36.0152 52.0576 35.5835C52.3461 35.1518 52.5 34.6443 52.5 34.1251C52.5 33.4289 52.2235 32.7613 51.7312 32.269C51.2389 31.7767 50.5712 31.5001 49.875 31.5001Z" fill="#CE582B"/>
</svg>
