<svg width="60" height="47" viewBox="0 0 84 67" fill="none" xmlns="http://www.w3.org/2000/svg">
<path d="M63 0C51.3975 0 42 9.36953 42 20.9375C42 32.5055 51.3975 41.875 63 41.875C74.6025 41.875 84 32.5055 84 20.9375C84 9.36953 74.6025 0 63 0ZM63 37.6875C53.7206 37.6875 46.2 30.1893 46.2 20.9375C46.2 17.0641 47.565 13.557 49.7831 10.7174L73.2637 34.1281C70.4025 36.3266 66.885 37.6875 63 37.6875ZM76.2169 31.1576L52.7494 7.75996C55.5975 5.54844 59.115 4.1875 63 4.1875C72.2794 4.1875 79.8 11.6857 79.8 20.9375C79.8 24.8109 78.435 28.318 76.2169 31.1576ZM21 25.125C9.3975 25.125 0 34.4945 0 46.0625C0 57.6305 9.3975 67 21 67C32.6025 67 42 57.6305 42 46.0625C42 34.4945 32.6025 25.125 21 25.125ZM21 62.8125C12.4425 62.8125 5.46 56.4135 4.41 48.1562H37.59C36.54 56.4135 29.5575 62.8125 21 62.8125ZM4.41 43.9688C5.46 35.7115 12.4425 29.3125 21 29.3125C29.5575 29.3125 36.54 35.7115 37.59 43.9688H4.41Z" fill="#CE582B"/>
</svg>
