<?xml version="1.0" encoding="utf-8"?>
<!-- Generator: Adobe Illustrator 17.1.0, SVG Export Plug-In . SVG Version: 6.00 Build 0)  -->
<!DOCTYPE svg PUBLIC "-//W3C//DTD SVG 1.1//EN" "http://www.w3.org/Graphics/SVG/1.1/DTD/svg11.dtd">
<svg version="1.1" id="Layer_1" focusable="false" xmlns="http://www.w3.org/2000/svg" xmlns:xlink="http://www.w3.org/1999/xlink"
	 x="0px" y="0px" viewBox="0 0 30 30" enable-background="new 0 0 30 30" xml:space="preserve">
<path fill="#CE582B" d="M5.3,16.5h19.5c0.4,0,0.8-0.3,0.8-0.8v-9c0-0.4-0.3-0.8-0.8-0.8h-8.3V3.8c0-0.4-0.3-0.8-0.8-0.8H5.3
	C4.8,3,4.5,3.3,4.5,3.8v12C4.5,16.2,4.8,16.5,5.3,16.5z M16.5,7.5H24V15h-7.5V7.5z M6,4.5h9V15H6V4.5z M29.6,19.5
	c0.2,0,0.4-0.2,0.4-0.4v-0.8c0-0.2-0.2-0.4-0.4-0.4H0.4C0.2,18,0,18.2,0,18.4v0.8c0,0.2,0.2,0.4,0.4,0.4H3v6H0.4
	c-0.2,0-0.4,0.2-0.4,0.4v0.8C0,26.8,0.2,27,0.4,27h29.3c0.2,0,0.4-0.2,0.4-0.4v-0.8c0-0.2-0.2-0.4-0.4-0.4H27v-6H29.6z M7.5,25.5h-3
	v-6h3V25.5z M21,25.5H9v-6h12V25.5z M25.5,25.5h-3v-6h3V25.5z"/>
</svg>
