<?xml version="1.0" encoding="utf-8"?>
<!-- Generator: Adobe Illustrator 17.1.0, SVG Export Plug-In . SVG Version: 6.00 Build 0)  -->
<!DOCTYPE svg PUBLIC "-//W3C//DTD SVG 1.1//EN" "http://www.w3.org/Graphics/SVG/1.1/DTD/svg11.dtd">
<svg version="1.1" id="Layer_1" focusable="false" xmlns="http://www.w3.org/2000/svg" xmlns:xlink="http://www.w3.org/1999/xlink"
	 x="0px" y="0px" viewBox="0 0 30 30" enable-background="new 0 0 30 30" xml:space="preserve">
<path fill="#CE582B" d="M25.4,5.7l-4.9-4.9C20,0.3,19.3,0,18.5,0h-12C5,0,3.8,1.3,3.8,2.8v24.4C3.8,28.7,5,30,6.6,30h16.9
	c1.6,0,2.8-1.3,2.8-2.8V7.7C26.3,7,26,6.3,25.4,5.7z M18.8,1.9c0.2,0,0.3,0.1,0.4,0.2l4.9,4.9c0.1,0.1,0.2,0.3,0.2,0.4h-5.6V1.9z
	 M24.4,27.2c0,0.5-0.4,0.9-0.9,0.9H6.6c-0.5,0-0.9-0.4-0.9-0.9V2.8c0-0.5,0.4-0.9,0.9-0.9h10.3V8c0,0.8,0.6,1.4,1.4,1.4h6.1V27.2z"
	/>
<g>
	<path fill="#CE582B" d="M12.9,18.2c0,0.7-0.2,1.3-0.5,1.7s-0.7,0.6-1.3,0.6c-0.5,0-0.8-0.2-1.1-0.5v2.1H8.9v-6.3H10l0,0.4
		c0.3-0.4,0.7-0.5,1.2-0.5c0.6,0,1,0.2,1.3,0.6C12.8,16.8,12.9,17.4,12.9,18.2L12.9,18.2z M11.7,18.1c0-0.4-0.1-0.7-0.2-1
		c-0.1-0.2-0.4-0.3-0.7-0.3c-0.4,0-0.6,0.1-0.8,0.4v1.9c0.1,0.3,0.4,0.4,0.8,0.4C11.4,19.5,11.7,19,11.7,18.1z"/>
	<path fill="#CE582B" d="M13.5,18.1c0-0.7,0.2-1.3,0.5-1.7c0.3-0.4,0.8-0.6,1.3-0.6c0.4,0,0.8,0.2,1.1,0.5v-2.3h1.2v6.4h-1.1
		l-0.1-0.5c-0.3,0.4-0.7,0.6-1.2,0.6c-0.5,0-1-0.2-1.3-0.6C13.7,19.4,13.5,18.8,13.5,18.1z M14.7,18.2c0,0.4,0.1,0.8,0.2,1
		c0.1,0.2,0.4,0.3,0.6,0.3c0.4,0,0.6-0.2,0.8-0.5v-1.8c-0.2-0.3-0.4-0.5-0.8-0.5C15,16.8,14.7,17.2,14.7,18.2z"/>
	<path fill="#CE582B" d="M18.9,20.4v-3.7h-0.7v-0.9h0.7v-0.4c0-0.5,0.1-0.9,0.4-1.2c0.3-0.3,0.7-0.4,1.2-0.4c0.2,0,0.4,0,0.6,0.1
		l0,0.9c-0.1,0-0.2,0-0.4,0c-0.5,0-0.7,0.2-0.7,0.6v0.4H21v0.9h-0.9v3.7H18.9z"/>
</g>
</svg>
