<?xml version="1.0" encoding="utf-8"?>
<!-- Generator: Adobe Illustrator 17.1.0, SVG Export Plug-In . SVG Version: 6.00 Build 0)  -->
<!DOCTYPE svg PUBLIC "-//W3C//DTD SVG 1.1//EN" "http://www.w3.org/Graphics/SVG/1.1/DTD/svg11.dtd">
<svg version="1.1" id="Layer_1" focusable="false" xmlns="http://www.w3.org/2000/svg" xmlns:xlink="http://www.w3.org/1999/xlink"
	 x="0px" y="0px" viewBox="0 0 30 30" enable-background="new 0 0 30 30" xml:space="preserve">
<path fill="#CE582B" d="M29.7,23c-0.1-0.3-0.3-0.4-0.6-0.3L20.4,25c-0.5-1.4-1.9-2.5-3.5-2.5c-0.1,0-0.2,0-0.3,0l-1.7-6.3
	c0.6-0.5,1-1.3,1-2.1c0-1.4-1-2.5-2.3-2.8L12.1,6c-0.1-0.3-0.3-0.4-0.6-0.3l-0.9,0.2c-0.3,0.1-0.4,0.3-0.3,0.6l1.3,4.8h-0.2L8.2,7.9
	C8,7.8,7.9,7.7,7.7,7.6c0.4-0.3,0.8-0.7,1.1-1.2c0.6-1,0.8-2.1,0.5-3.2C8.8,1.3,7.1,0,5.2,0C3.9,0,2.4,0.6,1.5,2
	C1,3,0.8,4.1,1.1,5.2c0.2,0.8,0.6,1.5,1.2,2C0.9,8.1,0,9.6,0,11.3v15.9C0,28.7,1.3,30,2.8,30s2.8-1.3,2.8-2.8v-3.9l0.2,0.2l0.8,4.2
	c0.3,1.4,1.6,2.6,3.3,2.3c0.7-0.1,1.4-0.6,1.8-1.2c0.4-0.6,0.6-1.4,0.5-2.1l-0.8-4.5c-0.2-1.1-0.8-2.1-1.6-2.8l-2.2-1.9v-2.3
	l1.6,1.6h4c0,0,0,0,0,0l1.7,6.2c-1,0.7-1.7,1.8-1.7,3.1c0,2.1,1.7,3.8,3.8,3.8c1.9,0,3.4-1.4,3.7-3.1l9.1-2.4
	c0.3-0.1,0.4-0.3,0.3-0.6C30,23.9,29.7,23,29.7,23z M5.2,1.9c1.1,0,2,0.7,2.3,1.8c0.4,1.6-0.9,2.9-2.3,2.9c-1.1,0-2-0.7-2.3-1.8
	C2.5,3.2,3.8,1.9,5.2,1.9z M3.8,27.2c0,0.5-0.4,0.9-0.9,0.9s-0.9-0.4-0.9-0.9v-7.1l1.9,1.6V27.2z M9.9,15l-3.5-3.5
	c-0.1-0.1-0.2-0.1-0.3-0.1c-0.2,0-0.5,0.2-0.5,0.5v6.6l2.9,2.5c0.5,0.4,0.8,1,1,1.7l0.8,4.5c0.1,0.5-0.2,1-0.8,1.1
	c-0.1,0-0.1,0-0.2,0c-0.4,0-0.8-0.3-0.9-0.8l-0.8-4.5c0-0.2-0.2-0.4-0.3-0.6l-4.4-3.8c-0.6-0.5-1-1.3-1-2.1v-5.1
	c0-1.5,1.2-2.8,2.7-2.8h0.1c0.9,0,1.6,0.3,2.2,0.8l3.9,3.9h2.4c0.5,0,0.9,0.4,0.9,0.9S13.6,15,13.1,15H9.9z M16.9,28.1
	c-1,0-1.9-0.8-1.9-1.9s0.8-1.9,1.9-1.9s1.9,0.8,1.9,1.9S17.9,28.1,16.9,28.1z"/>
</svg>
