<svg width="55" height="58" viewBox="0 0 69 73" fill="none" xmlns="http://www.w3.org/2000/svg">
<g clip-path="url(#clip0)">
<path d="M68.6694 26.8046L44.275 2.60908C43.8294 2.16709 43.0963 2.16709 42.6506 2.60908L41.0263 4.22021C40.5806 4.66221 40.5806 5.38936 41.0263 5.83135L43.47 8.25518L4.03939 47.3501C-1.35124 52.6968 -1.36561 61.3513 4.03939 66.6979C9.43002 72.0446 18.1556 72.0589 23.5463 66.6979L62.9625 27.603L65.4063 30.0269C65.8519 30.4688 66.585 30.4688 67.0306 30.0269L68.655 28.4157C69.115 27.9737 69.115 27.2608 68.6694 26.8046ZM20.3119 63.4757C16.8331 66.9261 10.7813 66.9261 7.30252 63.4757C3.70876 59.9112 3.70876 54.1368 7.30252 50.5724L16.8906 41.0624H42.9094L20.3119 63.4757ZM47.5094 36.4999H21.4906L46.7044 11.4917L59.7138 24.395L47.5094 36.4999Z" fill="#CE582B"/>
</g>
<defs>
<clipPath id="clip0">
<rect width="69" height="73" fill="white"/>
</clipPath>
</defs>
</svg>
