<?xml version="1.0" encoding="utf-8"?>
<!-- Generator: Adobe Illustrator 17.1.0, SVG Export Plug-In . SVG Version: 6.00 Build 0)  -->
<!DOCTYPE svg PUBLIC "-//W3C//DTD SVG 1.1//EN" "http://www.w3.org/Graphics/SVG/1.1/DTD/svg11.dtd">
<svg version="1.1" id="Layer_1" focusable="false" xmlns="http://www.w3.org/2000/svg" xmlns:xlink="http://www.w3.org/1999/xlink"
	 x="0px" y="0px" viewBox="0 0 30 30" enable-background="new 0 0 30 30" xml:space="preserve">
<path fill="#CE582B" d="M22.5,14.6v0.7c0,0.4-0.3,0.7-0.7,0.7h-5.7v5.7c0,0.4-0.3,0.7-0.7,0.7h-0.7c-0.4,0-0.7-0.3-0.7-0.7v-5.7H8.2
	c-0.4,0-0.7-0.3-0.7-0.7v-0.7c0-0.4,0.3-0.7,0.7-0.7h5.7V8.2c0-0.4,0.3-0.7,0.7-0.7h0.7c0.4,0,0.7,0.3,0.7,0.7v5.7h5.7
	C22.2,13.9,22.5,14.3,22.5,14.6z M29.5,15c0,8-6.5,14.5-14.5,14.5S0.5,23,0.5,15S7,0.5,15,0.5S29.5,7,29.5,15z M27.7,15
	C27.7,8,22,2.3,15,2.3C8,2.3,2.3,8,2.3,15C2.3,22,8,27.7,15,27.7C22,27.7,27.7,22,27.7,15z"/>
</svg>
