<?xml version="1.0" encoding="utf-8"?>
<!-- Generator: Adobe Illustrator 17.1.0, SVG Export Plug-In . SVG Version: 6.00 Build 0)  -->
<!DOCTYPE svg PUBLIC "-//W3C//DTD SVG 1.1//EN" "http://www.w3.org/Graphics/SVG/1.1/DTD/svg11.dtd">
<svg version="1.1" id="Layer_1" focusable="false" xmlns="http://www.w3.org/2000/svg" xmlns:xlink="http://www.w3.org/1999/xlink"
	 x="0px" y="0px" viewBox="0 0 30 30" enable-background="new 0 0 30 30" xml:space="preserve">
<path fill="#CE582B" d="M25.3,11.3h-0.9V6.4c0-0.5-0.2-1-0.5-1.3l-4.5-4.5C18.9,0.2,18.5,0,18,0H7.4c-1,0-1.8,0.8-1.8,1.9v9.4H4.7
	c-2.6,0-4.7,2.1-4.7,4.7v5.6c0,0.5,0.4,0.9,0.9,0.9h4.7v6.6C5.6,29.6,6,30,6.6,30h16.9c0.5,0,0.9-0.4,0.9-0.9v-6.6h4.7
	c0.5,0,0.9-0.4,0.9-0.9v-5.6C30,13.3,27.9,11.3,25.3,11.3z M18.8,2.7l3,3h-3V2.7z M7.5,1.9h9.4v3.8c0,1,0.8,1.9,1.9,1.9h3.8v3.8h-15
	C7.5,11.3,7.5,1.9,7.5,1.9z M22.5,28.1h-15v-5.6h15V28.1z M28.1,20.6H1.9v-4.7c0-1.6,1.3-2.8,2.8-2.8h20.6c1.6,0,2.8,1.3,2.8,2.8
	V20.6z M23.4,15.5c-0.8,0-1.4,0.6-1.4,1.4c0,0.8,0.6,1.4,1.4,1.4s1.4-0.6,1.4-1.4C24.8,16.1,24.2,15.5,23.4,15.5z"/>
</svg>
