<?xml version="1.0" encoding="utf-8"?>
<!-- Generator: Adobe Illustrator 17.1.0, SVG Export Plug-In . SVG Version: 6.00 Build 0)  -->
<!DOCTYPE svg PUBLIC "-//W3C//DTD SVG 1.1//EN" "http://www.w3.org/Graphics/SVG/1.1/DTD/svg11.dtd">
<svg version="1.1" id="Layer_1" focusable="false" xmlns="http://www.w3.org/2000/svg" xmlns:xlink="http://www.w3.org/1999/xlink"
	 x="0px" y="0px" viewBox="0 0 30 30" enable-background="new 0 0 30 30" xml:space="preserve">
<path fill="#CE582B" d="M6.8,21c2.1,0,3.8-1.7,3.8-3.8s-1.7-3.8-3.8-3.8S3,15.2,3,17.3S4.7,21,6.8,21z M6.8,15C8,15,9,16,9,17.3
	s-1,2.3-2.3,2.3s-2.3-1-2.3-2.3S5.5,15,6.8,15z M24.8,13.5h-12c-0.4,0-0.8,0.3-0.8,0.8v8.3H1.5V9.4C1.5,9.2,1.3,9,1.1,9H0.4
	C0.2,9,0,9.2,0,9.4v17.3C0,26.8,0.2,27,0.4,27h0.8c0.2,0,0.4-0.2,0.4-0.4V24h27v2.6c0,0.2,0.2,0.4,0.4,0.4h0.8
	c0.2,0,0.4-0.2,0.4-0.4v-7.9C30,15.8,27.7,13.5,24.8,13.5z M28.5,22.5h-15V15h11.3c2.1,0,3.8,1.7,3.8,3.8V22.5z M6.4,7.5h5.9
	l1.3,2.6c0.3,0.6,1.1,0.6,1.3,0l2.3-4.7l1,2.1H24c0.4,0,0.8-0.3,0.8-0.8S24.4,6,24,6h-4.8l-1.3-2.6c-0.3-0.6-1.1-0.6-1.3,0l-2.3,4.7
	l-0.9-1.9C13.3,6.1,13.1,6,13,6H6.4C6.2,6,6,6.2,6,6.4v0.8C6,7.3,6.2,7.5,6.4,7.5z"/>
</svg>
