<svg width="60" height="60" viewBox="0 0 86 86" fill="none" xmlns="http://www.w3.org/2000/svg">
<path d="M80.1659 27.3006L53.75 40.5085V30.9062C53.75 27.8816 50.5673 25.9749 47.9159 27.3006L21.5 40.5085V9.40625C21.5 7.17982 19.6952 5.375 17.4688 5.375H4.03125C1.80482 5.375 0 7.17982 0 9.40625V76.5938C0 78.8202 1.80482 80.625 4.03125 80.625H81.9688C84.1952 80.625 86 78.8202 86 76.5938V30.9062C86 27.8816 82.8173 25.9749 80.1659 27.3006ZM18.0697 48.2331L48.375 33.0804V47.0312C48.375 48.0305 49.4278 48.679 50.3197 48.2331L80.625 33.0804V75.25H5.375V10.75H16.125V47.0312C16.125 48.0302 17.178 48.6792 18.0697 48.2331Z" fill="#CE582B"/>
</svg>
