<?xml version="1.0" encoding="utf-8"?>
<!-- Generator: Adobe Illustrator 17.1.0, SVG Export Plug-In . SVG Version: 6.00 Build 0)  -->
<!DOCTYPE svg PUBLIC "-//W3C//DTD SVG 1.1//EN" "http://www.w3.org/Graphics/SVG/1.1/DTD/svg11.dtd">
<svg version="1.1" id="Layer_1" focusable="false" xmlns="http://www.w3.org/2000/svg" xmlns:xlink="http://www.w3.org/1999/xlink"
	 x="0px" y="0px" viewBox="0 0 30 30" enable-background="new 0 0 30 30" xml:space="preserve">
<path fill="#CE582B" d="M17,16.2h-2.3v-2.3c0-0.4-0.3-0.8-0.8-0.8c0,0,0,0,0,0h-1.6c-0.4,0-0.8,0.3-0.8,0.8c0,0,0,0,0,0v2.3H9.2
	c-0.4,0-0.8,0.3-0.8,0.8c0,0,0,0,0,0v1.6c0,0.4,0.3,0.8,0.8,0.8c0,0,0,0,0,0h2.3v2.3c0,0.4,0.3,0.8,0.8,0.8c0,0,0,0,0,0h1.6
	c0.4,0,0.8-0.3,0.8-0.8c0,0,0,0,0,0v-2.3H17c0.4,0,0.8-0.3,0.8-0.8c0,0,0,0,0,0V17C17.8,16.6,17.5,16.3,17,16.2
	C17,16.2,17,16.2,17,16.2z M26,5.9l-2.8-2.8c-0.2-0.2-0.4-0.3-0.7-0.3h-4.7V1.9c0-1-0.8-1.9-1.9-1.9h-5.6c-1,0-1.9,0.8-1.9,1.9v5.6
	C6.6,7.6,5.1,9.1,5,10.9l-1.2,15C3.6,28,5.1,29.8,7.2,30c0.1,0,0.2,0,0.3,0h11.3c2.1,0,3.8-1.7,3.8-3.7c0-0.1,0-0.2,0-0.3l-1.2-15
	c-0.2-1.8-1.6-3.3-3.5-3.4V4.7h4.3l2.5,2.5c0.4,0.4,1,0.3,1.3,0C26.3,6.8,26.3,6.3,26,5.9z M10.3,1.9h5.6v5.6h-5.6V1.9z M19.4,11.1
	l1.2,15c0.1,1-0.7,1.9-1.7,2c-0.1,0-0.1,0-0.2,0H7.5c-1,0-1.9-0.8-1.9-1.9c0-0.1,0-0.1,0-0.2l1.2-15c0.1-0.9,0.8-1.6,1.7-1.7h9.1
	C18.6,9.4,19.3,10.1,19.4,11.1z"/>
</svg>
