<svg width="52" height="52" viewBox="0 0 52 52" fill="none" xmlns="http://www.w3.org/2000/svg">
<rect width="4.72727" height="50.7107" fill="#CE582B"/>
<rect x="52" y="47.2727" width="4.72728" height="52" transform="rotate(90 52 47.2727)" fill="#CE582B"/>
<rect x="9.45462" width="4.72727" height="4.72727" fill="#CE582B"/>
<rect x="9.45462" y="9.45459" width="4.72727" height="4.72727" fill="#CE582B"/>
<rect x="14.1819" y="4.72729" width="4.72727" height="4.72727" fill="#CE582B"/>
<rect x="4.72726" y="14.1819" width="4.72727" height="4.72727" fill="#CE582B"/>
<rect x="14.1819" y="14.1819" width="4.72727" height="4.72727" fill="#CE582B"/>
<rect x="18.9091" width="4.72727" height="4.72727" fill="#CE582B"/>
<rect x="18.9091" y="4.72729" width="4.72727" height="4.72727" fill="#CE582B"/>
<rect x="18.9091" y="9.45459" width="4.72727" height="4.72727" fill="#CE582B"/>
<rect x="23.6364" y="4.72729" width="4.72727" height="4.72727" fill="#CE582B"/>
<rect x="28.3636" y="4.72729" width="4.72727" height="4.72727" fill="#CE582B"/>
<rect x="33.091" width="4.72727" height="4.72727" fill="#CE582B"/>
<rect x="33.091" y="9.45459" width="4.72727" height="4.72727" fill="#CE582B"/>
<rect x="23.6364" y="14.1819" width="4.72727" height="4.72727" fill="#CE582B"/>
<rect x="28.3636" y="14.1819" width="4.72727" height="4.72727" fill="#CE582B"/>
<rect x="28.3636" y="18.9092" width="4.72727" height="4.72727" fill="#CE582B"/>
<rect x="18.9091" y="18.9092" width="4.72727" height="4.72727" fill="#CE582B"/>
<rect x="23.6364" y="23.6365" width="4.72727" height="4.72727" fill="#CE582B"/>
<rect x="18.9091" y="28.3635" width="4.72727" height="4.72727" fill="#CE582B"/>
<rect x="18.9091" y="33.0908" width="4.72727" height="4.72727" fill="#CE582B"/>
<rect x="18.9091" y="37.8181" width="4.72727" height="4.72727" fill="#CE582B"/>
<rect x="14.1819" y="33.0908" width="4.72727" height="4.72727" fill="#CE582B"/>
<rect x="9.45462" y="37.8181" width="4.72727" height="4.72727" fill="#CE582B"/>
<rect x="14.1819" y="42.5454" width="4.72727" height="4.72727" fill="#CE582B"/>
<rect x="23.6364" y="42.5454" width="4.72727" height="4.72727" fill="#CE582B"/>
<rect x="37.8181" y="4.72729" width="4.72727" height="4.72727" fill="#CE582B"/>
<rect x="42.5454" y="4.72729" width="4.72727" height="4.72727" fill="#CE582B"/>
<rect x="47.2727" y="4.72729" width="4.72727" height="4.72727" fill="#CE582B"/>
<rect x="42.5454" y="9.45459" width="4.72727" height="4.72727" fill="#CE582B"/>
<rect x="37.8181" y="14.1819" width="4.72727" height="4.72727" fill="#CE582B"/>
<rect x="37.8181" y="18.9092" width="4.72727" height="4.72727" fill="#CE582B"/>
<rect x="37.8181" y="23.6365" width="4.72727" height="4.72727" fill="#CE582B"/>
<rect x="42.5454" y="23.6365" width="4.72727" height="4.72727" fill="#CE582B"/>
<rect x="47.2727" y="18.9092" width="4.72727" height="4.72727" fill="#CE582B"/>
<rect x="47.2727" y="28.3635" width="4.72727" height="4.72727" fill="#CE582B"/>
<rect x="33.091" y="28.3635" width="4.72727" height="4.72727" fill="#CE582B"/>
<rect x="28.3636" y="33.0908" width="4.72727" height="4.72727" fill="#CE582B"/>
<rect x="33.091" y="37.8181" width="4.72727" height="4.72727" fill="#CE582B"/>
<rect x="37.8181" y="33.0908" width="4.72727" height="4.72727" fill="#CE582B"/>
<rect x="42.5454" y="33.0908" width="4.72727" height="4.72727" fill="#CE582B"/>
<rect x="37.8181" y="42.5454" width="4.72727" height="4.72727" fill="#CE582B"/>
<rect x="47.2727" y="37.8181" width="4.72727" height="4.72727" fill="#CE582B"/>
<rect x="47.2727" y="14.1819" width="4.72727" height="4.72727" fill="#CE582B"/>
<rect x="9.45462" y="18.9092" width="4.72727" height="4.72727" fill="#CE582B"/>
<rect x="9.45462" y="23.6365" width="4.72727" height="4.72727" fill="#CE582B"/>
<rect x="4.72726" y="28.3635" width="4.72727" height="4.72727" fill="#CE582B"/>
<rect x="4.72726" y="4.72729" width="4.72727" height="4.72727" fill="#CE582B"/>
</svg>
