<?xml version="1.0" encoding="utf-8"?>
<!-- Generator: Adobe Illustrator 17.1.0, SVG Export Plug-In . SVG Version: 6.00 Build 0)  -->
<!DOCTYPE svg PUBLIC "-//W3C//DTD SVG 1.1//EN" "http://www.w3.org/Graphics/SVG/1.1/DTD/svg11.dtd">
<svg version="1.1" id="Layer_1" focusable="false" xmlns="http://www.w3.org/2000/svg" xmlns:xlink="http://www.w3.org/1999/xlink"
	 x="0px" y="0px" viewBox="0 0 30 30" enable-background="new 0 0 30 30" xml:space="preserve">
<path fill="#CE582B" d="M0,7.5V7c0-0.4,0.3-0.7,0.7-0.7h6.2c0.2,0,0.4,0.1,0.5,0.2l5.3,5.7l-1.3,1.4l-5-5.4H0.7C0.3,8.2,0,7.9,0,7.5
	z M29.4,23.8l-3.8,3.8c-1.2,1.2-3.2,0.3-3.2-1.3v-2.6H21c-0.2,0-0.4-0.1-0.5-0.2l-5.3-5.7l1.3-1.4l5,5.4h1v-3c0-1.7,2-2.5,3.2-1.3
	l3.8,3.8C30.2,21.9,30.2,23.1,29.4,23.8z M28.3,22.3l-3.8-3.8c-0.1-0.1-0.4,0-0.4,0.2v7.5c0,0.2,0.3,0.3,0.4,0.2l3.8-3.8
	C28.4,22.6,28.4,22.4,28.3,22.3z M29.4,8.8l-3.8,3.8c-1.2,1.2-3.2,0.3-3.2-1.3v-3h-1L7.4,23.4c-0.1,0.1-0.3,0.2-0.5,0.2H0.7
	C0.3,23.7,0,23.4,0,23v-0.5c0-0.4,0.3-0.7,0.7-0.7h5.7L20.5,6.6c0.1-0.1,0.3-0.2,0.5-0.2h1.5V3.8c0-1.7,2-2.5,3.2-1.3l3.8,3.8
	C30.2,6.9,30.2,8.1,29.4,8.8z M28.3,7.3l-3.8-3.8c-0.1-0.1-0.4,0-0.4,0.2v7.5c0,0.2,0.3,0.3,0.4,0.2l3.8-3.8
	C28.4,7.6,28.4,7.4,28.3,7.3z"/>
</svg>
