<?xml version="1.0" encoding="utf-8"?>
<!-- Generator: Adobe Illustrator 17.1.0, SVG Export Plug-In . SVG Version: 6.00 Build 0)  -->
<!DOCTYPE svg PUBLIC "-//W3C//DTD SVG 1.1//EN" "http://www.w3.org/Graphics/SVG/1.1/DTD/svg11.dtd">
<svg version="1.1" id="Layer_1" focusable="false" xmlns="http://www.w3.org/2000/svg" xmlns:xlink="http://www.w3.org/1999/xlink"
	 x="0px" y="0px" viewBox="0 0 30 30" enable-background="new 0 0 30 30" xml:space="preserve">
<path fill="#CE582B" d="M15,0.5C7,0.5,0.5,7,0.5,15S7,29.5,15,29.5S29.5,23,29.5,15S23,0.5,15,0.5z M27.7,15c0,7-5.6,12.7-12.7,12.7
	C8,27.7,2.3,22,2.3,15C2.3,8,8,2.3,15,2.3C22,2.3,27.7,8,27.7,15z M21.1,21.9c-3.3-6.1-3-5.6-3.1-5.8c1.6-0.7,2.6-2.3,2.6-4.3
	c0-3.4-2.2-4.7-5.5-4.7h-4.2c-0.4,0-0.7,0.3-0.7,0.7v14.4c0,0.4,0.3,0.7,0.7,0.7h1c0.4,0,0.7-0.3,0.7-0.7v-5.6h3l3.2,5.9
	c0.1,0.2,0.4,0.4,0.6,0.4h1.1C21,23,21.3,22.4,21.1,21.9z M15.6,14.5h-3.1v-5h2.5c1.2,0,3,0.1,3,2.5C18.1,13.5,17.1,14.5,15.6,14.5z
	"/>
</svg>
