<svg width="70" height="56" viewBox="0 0 103 82" fill="none" xmlns="http://www.w3.org/2000/svg">
<g clip-path="url(#clip0)">
<path d="M36.0339 41C47.4122 41 56.6339 31.823 56.6339 20.5C56.6339 9.17695 47.4122 0 36.0339 0C24.6717 0 15.45 9.17695 15.45 20.5C15.45 31.823 24.6717 41 36.0339 41ZM36.0339 5.125C44.5475 5.125 51.4839 12.0277 51.4839 20.5C51.4839 28.9723 44.5475 35.875 36.0339 35.875C27.5203 35.875 20.5839 28.9723 20.5839 20.5C20.6 12.0277 27.5203 5.125 36.0339 5.125ZM101.487 58.425L86.9706 43.9629C85.0394 42.041 82.4161 40.968 79.6963 40.968H66.9339C64.0853 40.968 61.7839 43.2582 61.7839 46.093V58.7934C61.7839 61.516 62.8622 64.1266 64.7934 66.0484L79.31 80.5106C80.3078 81.5035 81.6275 82.016 82.9472 82.016C84.2669 82.016 85.5866 81.5195 86.5844 80.5106L101.471 65.6961C103.499 63.6781 103.499 60.427 101.487 58.425ZM82.9633 76.875L68.4467 62.4129C67.4811 61.452 66.9339 60.1547 66.9339 58.7934V46.093H79.6963C81.0642 46.093 82.3678 46.6215 83.3334 47.5984L97.85 62.0605L82.9633 76.875ZM74.6589 51.25C73.2427 51.25 72.0839 52.4031 72.0839 53.8125C72.0839 55.2219 73.2427 56.375 74.6589 56.375C76.0752 56.375 77.2339 55.2219 77.2339 53.8125C77.2339 52.4031 76.0752 51.25 74.6589 51.25ZM64.3589 76.875H7.725C6.30875 76.875 5.15 75.7219 5.15 74.3125V67.65C5.15 58.6012 12.537 51.25 21.63 51.25C24.7844 51.25 27.9227 53.8125 36.05 53.8125C44.1452 53.8125 47.3156 51.25 50.47 51.25C52.6588 51.25 54.7348 51.6984 56.65 52.4672V47.118C54.6866 46.5254 52.6266 46.125 50.47 46.125C45.8511 46.125 43.6302 48.6875 36.05 48.6875C28.4698 48.6875 26.265 46.125 21.63 46.125C9.68844 46.125 0 55.7664 0 67.65V74.3125C0 78.5566 3.46016 82 7.725 82H64.3589C66.8695 82 69.0744 80.7828 70.4906 78.941L66.7569 75.2254C66.3706 76.1863 65.4533 76.875 64.3589 76.875Z" fill="#CE582B"/>
</g>
<defs>
<clipPath id="clip0">
<rect width="103" height="82" fill="white"/>
</clipPath>
</defs>
</svg>
