<?xml version="1.0" encoding="utf-8"?>
<!-- Generator: Adobe Illustrator 17.1.0, SVG Export Plug-In . SVG Version: 6.00 Build 0)  -->
<!DOCTYPE svg PUBLIC "-//W3C//DTD SVG 1.1//EN" "http://www.w3.org/Graphics/SVG/1.1/DTD/svg11.dtd">
<svg version="1.1" id="Layer_1" focusable="false" xmlns="http://www.w3.org/2000/svg" xmlns:xlink="http://www.w3.org/1999/xlink"
	 x="0px" y="0px" viewBox="0 0 30 30" enable-background="new 0 0 30 30" xml:space="preserve">
<path fill="#CE582B" d="M27.3,7.6l-4.9-4.9c-0.5-0.5-1.2-0.8-2-0.8H4.7c-1.6,0-2.8,1.3-2.8,2.8v20.6c0,1.6,1.3,2.8,2.8,2.8h20.6
	c1.6,0,2.8-1.3,2.8-2.8V9.6C28.1,8.9,27.8,8.1,27.3,7.6z M18.8,3.8v5.6H7.5V3.8H18.8z M26.3,25.3c0,0.5-0.4,0.9-0.9,0.9H4.7
	c-0.5,0-0.9-0.4-0.9-0.9V4.7c0-0.5,0.4-0.9,0.9-0.9h0.9v6.1c0,0.8,0.6,1.4,1.4,1.4h12.2c0.8,0,1.4-0.6,1.4-1.4V3.8
	c0.2,0,0.3,0.1,0.4,0.2L26,8.9c0.2,0.2,0.3,0.4,0.3,0.7V25.3z M15,13.6c-2.8,0-5.2,2.3-5.2,5.2s2.3,5.2,5.2,5.2s5.2-2.3,5.2-5.2
	S17.8,13.6,15,13.6z M15,22c-1.8,0-3.3-1.5-3.3-3.3s1.5-3.3,3.3-3.3s3.3,1.5,3.3,3.3S16.8,22,15,22z"/>
</svg>
