<?xml version="1.0" encoding="utf-8"?>
<!-- Generator: Adobe Illustrator 17.1.0, SVG Export Plug-In . SVG Version: 6.00 Build 0)  -->
<!DOCTYPE svg PUBLIC "-//W3C//DTD SVG 1.1//EN" "http://www.w3.org/Graphics/SVG/1.1/DTD/svg11.dtd">
<svg version="1.1" id="Layer_1" focusable="false" xmlns="http://www.w3.org/2000/svg" xmlns:xlink="http://www.w3.org/1999/xlink"
	 x="0px" y="0px" viewBox="0 0 30 30" enable-background="new 0 0 30 30" xml:space="preserve">
<path fill="#CE582B" d="M17.3,6h-12C2.3,6,0,8.3,0,11.3c0,2.4,1.6,4.3,3.7,5l-3.4,5.9c-0.6,1.1-0.3,2.5,0.8,3.1l2.6,1.5
	C4.1,26.9,4.5,27,4.8,27c0.8,0,1.5-0.4,1.9-1.1L9.6,21h3.1c1.2,0,2.3-1,2.3-2.3v-2.3h2.3c0.4,0,0.8-0.3,0.8-0.8v-9
	C18,6.3,17.7,6,17.3,6z M5.5,25.1c-0.1,0.2-0.4,0.4-0.7,0.4c-0.1,0-0.3,0-0.4-0.1l-2.6-1.5c-0.2-0.1-0.3-0.3-0.4-0.5
	s-0.1-0.3,0.1-0.6l3.7-6.4h5.2L5.5,25.1z M13.5,18.8c0,0.4-0.3,0.8-0.8,0.8h-2.3l1.7-3h1.3V18.8z M16.5,15H5.3
	c-2.1,0-3.8-1.7-3.8-3.8s1.7-3.8,3.8-3.8h11.3V15z M29.6,24h-8.3c-0.2,0-0.4,0.2-0.4,0.4v2.3c0,0.2,0.2,0.4,0.4,0.4h8.3
	c0.2,0,0.4-0.2,0.4-0.4v-2.3C30,24.2,29.8,24,29.6,24z M29.6,6h-8.3C21.2,6,21,6.2,21,6.4v2.3C21,8.8,21.2,9,21.4,9h8.3
	C29.8,9,30,8.8,30,8.6V6.4C30,6.2,29.8,6,29.6,6z M29.6,19.5h-8.3c-0.2,0-0.4,0.2-0.4,0.4v0.8c0,0.2,0.2,0.4,0.4,0.4h8.3
	c0.2,0,0.4-0.2,0.4-0.4v-0.8C30,19.7,29.8,19.5,29.6,19.5z M29.6,10.5h-8.3c-0.2,0-0.4,0.2-0.4,0.4v2.3c0,0.2,0.2,0.4,0.4,0.4h8.3
	c0.2,0,0.4-0.2,0.4-0.4v-2.3C30,10.7,29.8,10.5,29.6,10.5z M29.6,3h-8.3C21.2,3,21,3.2,21,3.4v0.8c0,0.2,0.2,0.4,0.4,0.4h8.3
	c0.2,0,0.4-0.2,0.4-0.4V3.4C30,3.2,29.8,3,29.6,3z M29.6,16.5h-8.3c-0.2,0-0.4,0.2-0.4,0.4v0.8c0,0.2,0.2,0.4,0.4,0.4h8.3
	c0.2,0,0.4-0.2,0.4-0.4v-0.8C30,16.7,29.8,16.5,29.6,16.5z"/>
</svg>
