<?xml version="1.0" encoding="utf-8"?>
<!-- Generator: Adobe Illustrator 17.1.0, SVG Export Plug-In . SVG Version: 6.00 Build 0)  -->
<!DOCTYPE svg PUBLIC "-//W3C//DTD SVG 1.1//EN" "http://www.w3.org/Graphics/SVG/1.1/DTD/svg11.dtd">
<svg version="1.1" id="Layer_1" focusable="false" xmlns="http://www.w3.org/2000/svg" xmlns:xlink="http://www.w3.org/1999/xlink"
	 x="0px" y="0px" viewBox="0 0 30 30" enable-background="new 0 0 30 30" xml:space="preserve">
<path fill="#CE582B" d="M29.8,28.2l-7.6-7.6c-0.1-0.1-0.3-0.2-0.5-0.2h-0.6c2-2.2,3.2-5.1,3.2-8.3C24.4,5.5,18.9,0,12.2,0
	S0,5.5,0,12.2s5.5,12.2,12.2,12.2c3.2,0,6.1-1.2,8.3-3.2v0.6c0,0.2,0.1,0.4,0.2,0.5l7.6,7.6c0.3,0.3,0.7,0.3,1,0l0.6-0.6
	C30.1,28.9,30.1,28.5,29.8,28.2z M12.2,22.5c-5.7,0-10.3-4.6-10.3-10.3S6.5,1.9,12.2,1.9s10.3,4.6,10.3,10.3S17.9,22.5,12.2,22.5z"
	/>
</svg>
