<svg width="57" height="61 " viewBox="0 0 81 88" fill="none" xmlns="http://www.w3.org/2000/svg">
<g clip-path="url(#clip0)">
<path d="M78.4579 11.3334L69.0778 2.41656C67.4503 0.869364 65.243 0.000102608 62.9413 0L31.8214 0C29.5197 0 27.3123 0.869194 25.6847 2.41637C24.0572 3.96354 23.1429 6.06196 23.1429 8.25V16.5H8.67857C6.37687 16.5 4.16944 17.3692 2.54189 18.9164C0.914347 20.4635 0 22.562 0 24.75L0 79.75C0 81.938 0.914347 84.0365 2.54189 85.5836C4.16944 87.1308 6.37687 88 8.67857 88H49.1786C51.4803 88 53.6877 87.1308 55.3152 85.5836C56.9428 84.0365 57.8571 81.938 57.8571 79.75V71.5H72.3214C74.6231 71.5 76.8306 70.6308 78.4581 69.0836C80.0857 67.5365 81 65.438 81 63.25V17.1669C80.9999 14.9789 80.0855 12.8805 78.4579 11.3334ZM63.6429 5.58422C64.1516 5.7038 64.6161 5.95344 64.9862 6.30609L74.3663 15.223C74.7364 15.5754 74.9989 16.0168 75.1257 16.5H63.6429V5.58422ZM52.0714 79.75C52.0714 80.4793 51.7666 81.1788 51.2241 81.6945C50.6816 82.2103 49.9458 82.5 49.1786 82.5H8.67857C7.91134 82.5 7.17553 82.2103 6.63301 81.6945C6.0905 81.1788 5.78571 80.4793 5.78571 79.75V24.75C5.78571 24.0207 6.0905 23.3212 6.63301 22.8055C7.17553 22.2897 7.91134 22 8.67857 22H23.1429V63.25C23.1429 65.438 24.0572 67.5365 25.6847 69.0836C27.3123 70.6308 29.5197 71.5 31.8214 71.5H52.0714V79.75ZM75.2143 63.25C75.2143 63.9793 74.9095 64.6788 74.367 65.1945C73.8245 65.7103 73.0887 66 72.3214 66H31.8214C31.0542 66 30.3184 65.7103 29.7759 65.1945C29.2334 64.6788 28.9286 63.9793 28.9286 63.25V8.25C28.9286 7.52065 29.2334 6.82118 29.7759 6.30546C30.3184 5.78973 31.0542 5.5 31.8214 5.5H57.8571V17.875C57.8605 18.968 58.3187 20.0154 59.1318 20.7883C59.9448 21.5612 61.0466 21.9968 62.1964 22H75.2143V63.25ZM56.8935 31.3964C56.8935 31.2459 56.8623 31.0968 56.8017 30.9577C56.7411 30.8186 56.6522 30.6922 56.5402 30.5858C56.4283 30.4793 56.2953 30.3949 56.149 30.3373C56.0027 30.2797 55.8459 30.25 55.6875 30.25H48.4554C48.1355 30.25 47.8288 30.3708 47.6026 30.5858C47.3765 30.8008 47.2494 31.0924 47.2494 31.3964V39.4161H38.8131C38.4933 39.4161 38.1865 39.5369 37.9604 39.7519C37.7342 39.9669 37.6071 40.2585 37.6071 40.5625V47.4375C37.6071 47.7415 37.7342 48.0331 37.9604 48.2481C38.1865 48.4631 38.4933 48.5839 38.8131 48.5839H47.2494V56.6036C47.2494 56.9076 47.3765 57.1992 47.6026 57.4142C47.8288 57.6292 48.1355 57.75 48.4554 57.75H55.6875C55.8459 57.75 56.0027 57.7203 56.149 57.6627C56.2953 57.6051 56.4283 57.5207 56.5402 57.4142C56.6522 57.3078 56.7411 57.1814 56.8017 57.0423C56.8623 56.9032 56.8935 56.7541 56.8935 56.6036V48.5839H65.3298C65.6496 48.5839 65.9563 48.4631 66.1825 48.2481C66.4087 48.0331 66.5357 47.7415 66.5357 47.4375V40.5625C66.5357 40.2585 66.4087 39.9669 66.1825 39.7519C65.9563 39.5369 65.6496 39.4161 65.3298 39.4161H56.8935V31.3964Z" fill="#CE582B"/>
</g>
<defs>
<clipPath id="clip0">
<rect width="81" height="88" fill="white"/>
</clipPath>
</defs>
</svg>
