<?xml version="1.0" encoding="utf-8"?>
<!-- Generator: Adobe Illustrator 17.1.0, SVG Export Plug-In . SVG Version: 6.00 Build 0)  -->
<!DOCTYPE svg PUBLIC "-//W3C//DTD SVG 1.1//EN" "http://www.w3.org/Graphics/SVG/1.1/DTD/svg11.dtd">
<svg version="1.1" id="Layer_1" focusable="false" xmlns="http://www.w3.org/2000/svg" xmlns:xlink="http://www.w3.org/1999/xlink"
	 x="0px" y="0px" viewBox="0 0 30 30" enable-background="new 0 0 30 30" xml:space="preserve">
<path fill="#CE582B" d="M2.8,3.8h7.7c0.4,0,0.7,0.3,0.7,0.7v0.5c0,0.4-0.3,0.7-0.7,0.7H2.8C2.3,5.6,1.9,6,1.9,6.6v16.9
	c0,0.5,0.4,0.9,0.9,0.9h7.7c0.4,0,0.7,0.3,0.7,0.7v0.5c0,0.4-0.3,0.7-0.7,0.7H2.8C1.3,26.3,0,25,0,23.4V6.6C0,5,1.3,3.8,2.8,3.8z
	 M19.2,4.9l-0.4,0.4c-0.3,0.3-0.3,0.7,0,1l7.7,7.7H10.1c-0.4,0-0.7,0.3-0.7,0.7v0.6c0,0.4,0.3,0.7,0.7,0.7h16.4l-7.7,7.7
	c-0.3,0.3-0.3,0.7,0,1l0.4,0.4c0.3,0.3,0.7,0.3,1,0l9.6-9.6c0.3-0.3,0.3-0.7,0-1l-9.6-9.6C19.9,4.6,19.4,4.6,19.2,4.9z"/>
</svg>
