<?xml version="1.0" encoding="utf-8"?>
<!-- Generator: Adobe Illustrator 17.1.0, SVG Export Plug-In . SVG Version: 6.00 Build 0)  -->
<!DOCTYPE svg PUBLIC "-//W3C//DTD SVG 1.1//EN" "http://www.w3.org/Graphics/SVG/1.1/DTD/svg11.dtd">
<svg version="1.1" id="Layer_1" focusable="false" xmlns="http://www.w3.org/2000/svg" xmlns:xlink="http://www.w3.org/1999/xlink"
	 x="0px" y="0px" viewBox="0 0 30 30" enable-background="new 0 0 30 30" xml:space="preserve">
<path fill="#CE582B" d="M3.8,21H2.3c-0.2,0-0.4,0.2-0.4,0.4v5.3C1.9,26.8,2,27,2.3,27h1.5c0.2,0,0.4-0.2,0.4-0.4v-5.3
	C4.1,21.2,4,21,3.8,21z M22.1,7.9c0-0.2-0.2-0.4-0.4-0.4h-1.5c-0.2,0-0.4,0.2-0.4,0.4V16l2.3,1.8V7.9z M28.1,3.4
	C28.1,3.2,28,3,27.8,3h-1.5c-0.2,0-0.4,0.2-0.4,0.4v17.3l2.3,1.8V3.4z M19.9,26.6c0,0.2,0.2,0.4,0.4,0.4h1.5c0.2,0,0.4-0.2,0.4-0.4
	v-3.2l-2.3-1.8V26.6z M9.8,16.5H8.3c-0.2,0-0.4,0.2-0.4,0.4v9.8C7.9,26.8,8,27,8.3,27h1.5c0.2,0,0.4-0.2,0.4-0.4v-9.8
	C10.1,16.7,10,16.5,9.8,16.5z M29.9,25.7L1.1,3.1C0.9,3,0.7,3,0.6,3.1L0.1,3.7C0,3.9,0,4.1,0.1,4.3l28.8,22.7
	c0.2,0.1,0.4,0.1,0.5-0.1l0.5-0.6C30,26.1,30,25.9,29.9,25.7z M13.9,26.6c0,0.2,0.2,0.4,0.4,0.4h1.5c0.2,0,0.4-0.2,0.4-0.4v-7.9
	L13.9,17V26.6z"/>
</svg>
