<svg width="50" height="58" viewBox="0 0 57 65" fill="none" xmlns="http://www.w3.org/2000/svg">
<path d="M28.5 32.5C37.4953 32.5 44.7857 25.2256 44.7857 16.25C44.7857 7.27441 37.4953 0 28.5 0C19.5047 0 12.2143 7.27441 12.2143 16.25C12.2143 25.2256 19.5047 32.5 28.5 32.5ZM28.5 4.0625C35.2306 4.0625 40.7143 9.53418 40.7143 16.25C40.7143 22.9658 35.2306 28.4375 28.5 28.4375C21.7694 28.4375 16.2857 22.9658 16.2857 16.25C16.2857 9.53418 21.7694 4.0625 28.5 4.0625ZM40.4217 36.5752C36.1212 36.4482 34.7853 38.5938 28.5 38.5938C22.2275 38.5938 20.8915 36.4482 16.5911 36.5752C7.37946 36.8418 0 44.3701 0 53.625V63.9844C0 64.543 0.458036 65 1.01786 65H3.05357C3.61339 65 4.07143 64.543 4.07143 63.9844V53.625C4.07143 46.7314 9.49152 41.1328 16.2857 40.7012V51.0732C13.3467 51.9492 11.1964 54.666 11.1964 57.8906C11.1964 61.8135 14.39 65 18.3214 65C22.2529 65 25.4464 61.8135 25.4464 57.8906C25.4464 54.666 23.2962 51.9492 20.3571 51.0732V41.3105C23.0036 42.1738 25.7263 42.6436 28.5 42.6436C31.2737 42.6436 33.9964 42.1738 36.6429 41.3105V50.0449C33.0549 50.9971 30.5357 54.4248 30.5357 58.2461V61.9531C30.5357 62.4863 30.752 63.0068 31.1337 63.3877L32.4442 64.6953C32.8386 65.0889 33.4875 65.0889 33.8819 64.6953L35.3196 63.2607C35.7141 62.8672 35.7141 62.2197 35.3196 61.8262L34.5944 61.1025V57.8906C34.5944 55.4277 36.8083 53.4727 39.3529 53.8789C41.3504 54.209 42.7373 56.0879 42.7373 58.1064V61.1025L42.0121 61.8262C41.6176 62.2197 41.6176 62.8672 42.0121 63.2607L43.4498 64.6953C43.8442 65.0889 44.4931 65.0889 44.8875 64.6953L46.198 63.3877C46.5797 63.0068 46.796 62.4863 46.796 61.9531V57.8906C46.796 54.1201 44.1877 50.9717 40.6888 50.0703V40.7139C47.483 41.1455 52.9031 46.7441 52.9031 53.6377V63.9844C52.9031 64.543 53.3612 65 53.921 65H55.9567C56.5165 65 56.9745 64.543 56.9745 63.9844V53.625C57 44.3701 49.6205 36.8418 40.4217 36.5752V36.5752ZM21.375 57.8906C21.375 59.5664 20.0009 60.9375 18.3214 60.9375C16.642 60.9375 15.2679 59.5664 15.2679 57.8906C15.2679 56.2148 16.642 54.8438 18.3214 54.8438C20.0009 54.8438 21.375 56.2148 21.375 57.8906Z" fill="#CE582B"/>
</svg>
