<svg width="62" height="65" viewBox="0 0 76 80" fill="none" xmlns="http://www.w3.org/2000/svg">
<path d="M72.5266 40.1094L57.5938 34.2188V16.8594C57.5938 14.5156 56.2133 12.4219 54.1203 11.5937L39.8703 5.96875C38.668 5.48437 37.332 5.48437 36.1148 5.96875L21.8648 11.5937C19.7719 12.4219 18.3914 14.5156 18.3914 16.8594V34.2188L3.47344 40.1094C1.38047 40.9375 0 43.0312 0 45.375V61.2031C0 63.3281 1.14297 65.2812 2.95391 66.2344L17.2039 73.7344C18.7031 74.5312 20.4844 74.5312 21.9836 73.7344L38 65.3125L54.0164 73.75C55.5156 74.5469 57.2969 74.5469 58.7961 73.75L73.0461 66.25C74.857 65.2969 76 63.3438 76 61.2188V45.375C76 43.0312 74.6195 40.9375 72.5266 40.1094ZM2.44922 63.0938V46.1094L18.3617 53.375V71.4688L2.44922 63.0938ZM36.7383 63.0938L20.8258 71.4688V53.375L36.7383 46.1094V63.0938ZM36.7383 43.2969L19.5938 51.1094L2.44922 43.2969V43.2656L19.4453 36.5625L35.4172 42.75L36.7383 43.2656V43.2969ZM36.7828 40.2188L28.9453 37.4375L20.8555 34.25V17.5781L36.7828 24.8438V40.2188ZM20.8555 14.7656V14.75L38 7.96875L55.1445 14.7344V14.7656L38 22.5781L20.8555 14.7656ZM39.2172 24.8438L55.1297 17.5781V34.25L47.0547 37.4375L39.2172 40.2188V24.8438ZM55.1891 71.4688L39.2766 63.0938V46.1094L55.1891 53.375V71.4688ZM73.5508 63.0938L57.6383 71.4688V53.375L73.5508 46.1094V63.0938ZM73.5508 43.2969L56.4062 51.1094L39.2617 43.2812V43.25L40.5828 42.7344L56.5547 36.5625L73.5508 43.2656V43.2969Z" fill="#CE582B"/>
</svg>
