<svg width="67" height="57" viewBox="0 0 78 66" fill="none" xmlns="http://www.w3.org/2000/svg">
<g clip-path="url(#clip0)">
<path d="M77.7947 18.5367L71.5214 5.28516C71.175 4.56328 70.4822 4.125 69.7381 4.125C69.6612 4.125 39 8.25 39 8.25C39 8.25 8.33882 4.125 8.26184 4.125C7.51776 4.125 6.825 4.57617 6.47862 5.28516L0.205267 18.5367C-0.359207 19.7227 0.243754 21.1406 1.43685 21.5016L7.78717 23.4223V50.6602C7.78717 52.5551 9.00592 54.2051 10.7378 54.6562L37.0885 61.6301C38.7562 62.0684 40.1289 61.8234 40.873 61.6301L67.2493 54.6562C68.9812 54.1922 70.2 52.5422 70.2 50.6602V23.4223L76.5503 21.5016C77.7562 21.1406 78.3464 19.7227 77.7947 18.5367ZM9.36513 8.41758L32.5727 11.55L25.2474 24.4148L4.73388 18.2145L9.36513 8.41758ZM11.7 24.6082C26.7227 29.1457 25.722 28.875 26.1197 28.875C26.8125 28.875 27.4668 28.5012 27.826 27.8566L37.05 11.6789V57.3633L11.7 50.6602V24.6082ZM66.3 50.6602L40.95 57.3633V11.666L50.174 27.8438C50.546 28.4883 51.2003 28.8621 51.8802 28.8621C52.2779 28.8621 51.2388 29.1328 66.3 24.5953V50.6602ZM52.7654 24.402L45.4401 11.5371L68.6348 8.41758L73.2661 18.2145L52.7654 24.402Z" fill="#CE582B"/>
</g>
<defs>
<clipPath id="clip0">
<rect width="78" height="66" fill="white"/>
</clipPath>
</defs>
</svg>
