<svg width="65" height="58" viewBox="0 0 91 81" fill="none" xmlns="http://www.w3.org/2000/svg">
<path d="M63.1944 15.1875H2.52778C1.1375 15.1875 0 16.3266 0 17.7188V44.5184C0 45.1828 0.268576 45.8314 0.742535 46.3061L5.05556 50.625V73.4062C5.05556 77.5986 8.45226 81 12.6389 81H53.0833C57.27 81 60.6667 77.5986 60.6667 73.4062V50.625L64.9797 46.3061C65.4536 45.8314 65.7222 45.1828 65.7222 44.5184V17.7188C65.7222 16.3266 64.5847 15.1875 63.1944 15.1875ZM60.6667 43.4584L55.6111 48.5209V73.4062C55.6111 74.7984 54.4736 75.9375 53.0833 75.9375H12.6389C11.2486 75.9375 10.1111 74.7984 10.1111 73.4062V48.5209L8.62604 47.0338L5.05556 43.4584V20.25H60.6667V43.4584ZM17.6944 70.875H48.0278C49.4181 70.875 50.5556 69.7359 50.5556 68.3438V27.8438C50.5556 26.4516 49.4181 25.3125 48.0278 25.3125H17.6944C16.3042 25.3125 15.1667 26.4516 15.1667 27.8438V68.3438C15.1667 69.7359 16.3042 70.875 17.6944 70.875ZM20.2222 30.375H45.5V65.8125H20.2222V30.375ZM50.5556 1.26562C50.5556 0.569531 49.9868 0 49.2917 0H46.7639C46.0687 0 45.5 0.569531 45.5 1.26562V10.125H50.5556V1.26562ZM40.4444 1.26562C40.4444 0.569531 39.8757 0 39.1806 0H31.5972C30.9021 0 30.3333 0.569531 30.3333 1.26562V10.125H40.4444V1.26562ZM89.7361 0H82.1528C81.4576 0 80.8889 0.569531 80.8889 1.26562V44.2969C80.8889 44.993 81.4576 45.5625 82.1528 45.5625H89.7361C90.4312 45.5625 91 44.993 91 44.2969V1.26562C91 0.569531 90.4312 0 89.7361 0ZM74.5694 0H72.0417C71.3465 0 70.7778 0.569531 70.7778 1.26562V44.2969C70.7778 44.993 71.3465 45.5625 72.0417 45.5625H74.5694C75.2646 45.5625 75.8333 44.993 75.8333 44.2969V1.26562C75.8333 0.569531 75.2646 0 74.5694 0ZM64.4583 0H56.875C56.1799 0 55.6111 0.569531 55.6111 1.26562V10.125H65.7222V1.26562C65.7222 0.569531 65.1535 0 64.4583 0Z" fill="#CE582B"/>
</svg>
