<svg width="41" height="55" viewBox="0 0 64 86" fill="none" xmlns="http://www.w3.org/2000/svg">
<path d="M64 24.1875C64 16.7633 58.0333 10.75 50.6667 10.75C43.3 10.75 37.3333 16.7633 37.3333 24.1875C37.3333 30.7719 42.0333 36.2477 48.25 37.4066C48.1167 40.2957 47.4167 42.5129 46.1333 44.1254C43.2167 47.7871 37.2833 48.3582 31.0167 48.9461C26.3167 49.3828 21.45 49.8531 17.6167 51.7848C17.05 52.0703 16.5 52.3895 16 52.7422V26.6062C22.0833 25.3633 26.6667 19.9379 26.6667 13.4375C26.6667 6.01328 20.7 0 13.3333 0C5.96667 0 0 6.01328 0 13.4375C0 19.9379 4.58333 25.3633 10.6667 26.6062V59.3937C4.58333 60.6367 0 66.0621 0 72.5625C0 79.9867 5.96667 86 13.3333 86C20.7 86 26.6667 79.9867 26.6667 72.5625C26.6667 66.3645 22.5167 61.1574 16.85 59.5953C17.6833 57.9828 18.9 57.143 20.0167 56.5719C22.9333 55.0937 27.1 54.6906 31.5 54.2707C38.6 53.5988 45.95 52.9102 50.2833 47.468C52.35 44.8645 53.45 41.5051 53.5833 37.2723C59.55 35.9453 64 30.5871 64 24.1875ZM5.33333 13.4375C5.33333 8.98633 8.91667 5.375 13.3333 5.375C17.75 5.375 21.3333 8.98633 21.3333 13.4375C21.3333 17.8887 17.75 21.5 13.3333 21.5C8.91667 21.5 5.33333 17.8887 5.33333 13.4375ZM21.3333 72.5625C21.3333 77.0137 17.75 80.625 13.3333 80.625C8.91667 80.625 5.33333 77.0137 5.33333 72.5625C5.33333 68.1281 8.9 64.5168 13.3 64.5H13.4C17.7833 64.5336 21.3333 68.1449 21.3333 72.5625ZM52.6333 31.998L50.6667 32.25C46.25 32.25 42.6667 28.6387 42.6667 24.1875C42.6667 19.7363 46.25 16.125 50.6667 16.125C55.0833 16.125 58.6667 19.7363 58.6667 24.1875C58.6667 27.95 56.1 31.1078 52.6333 31.998Z" fill="#CE582B"/>
</svg>
