<?xml version="1.0" encoding="utf-8"?>
<!-- Generator: Adobe Illustrator 17.1.0, SVG Export Plug-In . SVG Version: 6.00 Build 0)  -->
<!DOCTYPE svg PUBLIC "-//W3C//DTD SVG 1.1//EN" "http://www.w3.org/Graphics/SVG/1.1/DTD/svg11.dtd">
<svg version="1.1" id="Layer_1" focusable="false" xmlns="http://www.w3.org/2000/svg" xmlns:xlink="http://www.w3.org/1999/xlink"
	 x="0px" y="0px" viewBox="0 0 30 30" enable-background="new 0 0 30 30" xml:space="preserve">
<path fill="#CE582B" d="M28.8,0.5h-0.6c-0.4,0-0.7,0.3-0.7,0.7v6.5C25,3.4,20.3,0.5,15,0.5C7.2,0.5,0.9,6.6,0.5,14.3
	c0,0.4,0.3,0.7,0.7,0.7h0.6c0.4,0,0.7-0.3,0.7-0.7C2.8,7.7,8.3,2.5,15,2.5c4.9,0,9.1,2.8,11.1,6.8h-6.7c-0.4,0-0.7,0.3-0.7,0.7v0.6
	c0,0.4,0.3,0.7,0.7,0.7h9.4c0.4,0,0.7-0.3,0.7-0.7V1.2C29.5,0.8,29.2,0.5,28.8,0.5z M28.8,15h-0.6c-0.4,0-0.7,0.3-0.7,0.7
	c-0.3,6.6-5.8,11.9-12.5,11.9c-4.8,0-9.1-2.8-11.2-6.8h6.7c0.4,0,0.7-0.3,0.7-0.7v-0.6c0-0.4-0.3-0.7-0.7-0.7H1.2
	c-0.4,0-0.7,0.3-0.7,0.7v9.4c0,0.4,0.3,0.7,0.7,0.7h0.6c0.4,0,0.7-0.3,0.7-0.7v-6.5C5,26.6,9.7,29.5,15,29.5
	c7.8,0,14.1-6.1,14.5-13.8C29.5,15.3,29.2,15,28.8,15z"/>
</svg>
