<?xml version="1.0" encoding="utf-8"?>
<!-- Generator: Adobe Illustrator 17.1.0, SVG Export Plug-In . SVG Version: 6.00 Build 0)  -->
<!DOCTYPE svg PUBLIC "-//W3C//DTD SVG 1.1//EN" "http://www.w3.org/Graphics/SVG/1.1/DTD/svg11.dtd">
<svg version="1.1" id="Layer_1" focusable="false" xmlns="http://www.w3.org/2000/svg" xmlns:xlink="http://www.w3.org/1999/xlink"
	 x="0px" y="0px" viewBox="0 0 30 30" enable-background="new 0 0 30 30" xml:space="preserve">
<path fill="#CE582B" d="M29.9,4.8l-4.6-4.6C25,0,24.7,0,24.6,0.1l-0.7,0.7c-0.2,0.2-0.2,0.5,0,0.7l1.7,1.7l-2.7,2.7l-3.3-3.3l-1-1
	c-0.2-0.2-0.5-0.2-0.7,0l-0.7,0.7c-0.2,0.2-0.2,0.5,0,0.7l1,1L5,17.1c-1,1-1.5,2.4-1.3,3.8L4,24.7l-3.9,3.9C0,28.7,0,29,0.1,29.2
	l0.7,0.7C1,30,1.3,30,1.5,29.9L5.3,26l3.7,0.4c1.4,0.2,2.8-0.3,3.8-1.3l13.3-13.3l1,1c0.2,0.2,0.5,0.2,0.7,0l0.7-0.7
	c0.2-0.2,0.2-0.5,0-0.7l-4.3-4.3l2.7-2.7l1.7,1.7c0.2,0.2,0.5,0.2,0.7,0l0.7-0.7C30,5.3,30,5,29.9,4.8z M24.9,10.4L11.6,23.7
	c-0.6,0.6-1.4,0.9-2.3,0.8l-3.4-0.4l-0.4-3.4c-0.1-0.9,0.2-1.7,0.8-2.3l1.4-1.4l2.3,2.3c0.2,0.2,0.5,0.2,0.7,0l0.7-0.7
	c0.2-0.2,0.2-0.5,0-0.7L9,15.7l2.7-2.7l2.3,2.3c0.2,0.2,0.5,0.2,0.7,0l0.7-0.7c0.2-0.2,0.2-0.5,0-0.7L13,11.7l2.7-2.7l2.3,2.3
	c0.2,0.2,0.5,0.2,0.7,0l0.7-0.7c0.2-0.2,0.2-0.5,0-0.7l-2.3-2.3l2.7-2.7C19.6,5.1,24.9,10.4,24.9,10.4z"/>
</svg>
