<?xml version="1.0" encoding="utf-8"?>
<!-- Generator: Adobe Illustrator 17.1.0, SVG Export Plug-In . SVG Version: 6.00 Build 0)  -->
<!DOCTYPE svg PUBLIC "-//W3C//DTD SVG 1.1//EN" "http://www.w3.org/Graphics/SVG/1.1/DTD/svg11.dtd">
<svg version="1.1" id="Layer_1" focusable="false" xmlns="http://www.w3.org/2000/svg" xmlns:xlink="http://www.w3.org/1999/xlink"
	 x="0px" y="0px" viewBox="0 0 30 30" enable-background="new 0 0 30 30" xml:space="preserve">
<path fill="#CE582B" d="M22.5,3C18.4,3,15,6.4,15,10.5s3.4,7.5,7.5,7.5s7.5-3.4,7.5-7.5S26.6,3,22.5,3z M22.5,16.5c-3.3,0-6-2.7-6-6
	c0-1.4,0.5-2.6,1.3-3.7l8.4,8.4C25.1,16,23.9,16.5,22.5,16.5z M27.2,14.2l-8.4-8.4c1-0.8,2.3-1.3,3.7-1.3c3.3,0,6,2.7,6,6
	C28.5,11.9,28,13.1,27.2,14.2z M7.5,12C3.4,12,0,15.4,0,19.5S3.4,27,7.5,27s7.5-3.4,7.5-7.5S11.6,12,7.5,12z M7.5,25.5
	c-3.1,0-5.6-2.3-5.9-5.3h11.8C13,23.2,10.6,25.5,7.5,25.5z M1.6,18.8c0.4-3,2.9-5.3,5.9-5.3s5.5,2.3,5.9,5.3H1.6z"/>
</svg>
