<?xml version="1.0" encoding="utf-8"?>
<!-- Generator: Adobe Illustrator 17.1.0, SVG Export Plug-In . SVG Version: 6.00 Build 0)  -->
<!DOCTYPE svg PUBLIC "-//W3C//DTD SVG 1.1//EN" "http://www.w3.org/Graphics/SVG/1.1/DTD/svg11.dtd">
<svg version="1.1" id="Layer_1" focusable="false" xmlns="http://www.w3.org/2000/svg" xmlns:xlink="http://www.w3.org/1999/xlink"
	 x="0px" y="0px" viewBox="0 0 30 30" enable-background="new 0 0 30 30" xml:space="preserve">
<path fill="#CE582B" d="M29.3,16.8l-9.6,9.6c-0.9,0.9-2.3,0.9-3.2,0l-0.1-0.1l1.1-1.1l0.1,0.1c0.3,0.3,0.8,0.3,1.1,0l9.6-9.6
	c0.3-0.3,0.3-0.8,0-1.1l-9.9-9.9c-0.1-0.1-0.3-0.2-0.5-0.2h-0.9L15.4,3h2.4c0.6,0,1.2,0.2,1.6,0.7l9.9,9.9
	C30.2,14.5,30.2,15.9,29.3,16.8z M11.8,4.5H2.3c-0.4,0-0.8,0.3-0.8,0.8v9.6c0,0.2,0.1,0.4,0.2,0.5l9.9,9.9c0.3,0.3,0.8,0.3,1.1,0
	l9.6-9.6c0.3-0.3,0.3-0.8,0-1.1l-9.9-9.9C12.2,4.6,12,4.5,11.8,4.5 M11.8,3c0.6,0,1.2,0.2,1.6,0.7l9.9,9.9c0.9,0.9,0.9,2.3,0,3.2
	l-9.6,9.6c-0.9,0.9-2.3,0.9-3.2,0l-9.9-9.9C0.2,16,0,15.4,0,14.8V5.3C0,4,1,3,2.3,3H11.8z M6.8,8.8c-0.5,0-0.9,0.4-0.9,0.9
	s0.4,0.9,0.9,0.9s0.9-0.4,0.9-0.9S7.3,8.8,6.8,8.8 M6.8,7.5C8,7.5,9,8.5,9,9.8S8,12,6.8,12s-2.3-1-2.3-2.3S5.5,7.5,6.8,7.5z"/>
</svg>
