<?xml version="1.0" encoding="utf-8"?>
<!-- Generator: Adobe Illustrator 17.1.0, SVG Export Plug-In . SVG Version: 6.00 Build 0)  -->
<!DOCTYPE svg PUBLIC "-//W3C//DTD SVG 1.1//EN" "http://www.w3.org/Graphics/SVG/1.1/DTD/svg11.dtd">
<svg version="1.1" id="Layer_1" focusable="false" xmlns="http://www.w3.org/2000/svg" xmlns:xlink="http://www.w3.org/1999/xlink"
	 x="0px" y="0px" viewBox="0 0 30 30" enable-background="new 0 0 30 30" xml:space="preserve">
<path fill="#CE582B" d="M27.9,1.2c-2.2-1.8-5.6-1.5-7.7,0.6L5.6,16.5v5.9l-5.2,5.2c-0.6,0.6-0.6,1.4,0,2c0.6,0.6,1.4,0.6,2,0
	l5.2-5.2h5.9L28.4,9.5C30.4,7.5,30.8,3.6,27.9,1.2z M26.4,7.5l-14.1,14H8.4v-3.9l1.9-2l1.6,1.6c0.4,0.4,1,0.4,1.3,0l0.7-0.7
	c0.4-0.4,0.4-1,0-1.3l-1.6-1.6l2-2l1.6,1.6c0.4,0.4,1,0.4,1.3,0l0.7-0.7c0.4-0.4,0.4-1,0-1.3l-1.6-1.6l2-2l1.6,1.6
	c0.4,0.4,1,0.4,1.3,0l0.7-0.7c0.4-0.4,0.4-1,0-1.3l-1.7-1.7l1.9-1.9c1.1-1.1,2.9-1.3,3.9-0.4C27.6,4.6,27.4,6.5,26.4,7.5z"/>
</svg>
