<svg width="58" height="51" viewBox="0 0 79 70" fill="none" xmlns="http://www.w3.org/2000/svg">
<path d="M15.3611 4.375C6.88507 4.375 0 11.2383 0 19.6875V50.3125C0 58.7617 6.88507 65.625 15.3611 65.625C23.8372 65.625 30.7222 58.7617 30.7222 50.3125V19.6875C30.7222 11.2383 23.8372 4.375 15.3611 4.375ZM26.3333 50.3125C26.3333 56.3418 21.4095 61.25 15.3611 61.25C9.31267 61.25 4.38889 56.3418 4.38889 50.3125V39.375H26.3333V50.3125ZM26.3333 35H4.38889V19.6875C4.38889 13.6582 9.31267 8.75 15.3611 8.75C21.4095 8.75 26.3333 13.6582 26.3333 19.6875V35ZM57.0556 21.875C44.9312 21.875 35.1111 31.6641 35.1111 43.75C35.1111 55.8359 44.9312 65.625 57.0556 65.625C69.1799 65.625 79 55.8359 79 43.75C79 31.6641 69.1799 21.875 57.0556 21.875ZM57.0556 61.25C47.3589 61.25 39.5 53.416 39.5 43.75C39.5 39.7031 40.9264 36.0391 43.2443 33.0723L67.7809 57.5312C64.791 59.8281 61.1153 61.25 57.0556 61.25ZM70.8668 54.4277L46.3439 29.9824C49.3201 27.6855 52.9958 26.25 57.0556 26.25C66.7523 26.25 74.6111 34.084 74.6111 43.75C74.6111 47.7969 73.1847 51.4609 70.8668 54.4277Z" fill="#CE582B"/>
</svg>
