<svg width="62" height="50" viewBox="0 0 82 66" fill="none" xmlns="http://www.w3.org/2000/svg">
<path d="M35.875 12.375H33.825C33.2612 12.375 32.8 12.8391 32.8 13.4062V52.5938C32.8 53.1609 33.2612 53.625 33.825 53.625H35.875C36.4387 53.625 36.9 53.1609 36.9 52.5938V13.4062C36.9 12.8391 36.4387 12.375 35.875 12.375ZM27.675 12.375H25.625C25.0612 12.375 24.6 12.8391 24.6 13.4062V52.5938C24.6 53.1609 25.0612 53.625 25.625 53.625H27.675C28.2387 53.625 28.7 53.1609 28.7 52.5938V13.4062C28.7 12.8391 28.2387 12.375 27.675 12.375ZM75.85 0H6.15C2.75469 0 0 2.77148 0 6.1875V59.8125C0 63.2285 2.75469 66 6.15 66H75.85C79.2453 66 82 63.2285 82 59.8125V6.1875C82 2.77148 79.2453 0 75.85 0ZM77.9 59.8125C77.9 60.9469 76.9775 61.875 75.85 61.875H6.15C5.0225 61.875 4.1 60.9469 4.1 59.8125V6.1875C4.1 5.05312 5.0225 4.125 6.15 4.125H75.85C76.9775 4.125 77.9 5.05312 77.9 6.1875V59.8125ZM19.475 12.375H13.325C12.7612 12.375 12.3 12.8391 12.3 13.4062V52.5938C12.3 53.1609 12.7612 53.625 13.325 53.625H19.475C20.0387 53.625 20.5 53.1609 20.5 52.5938V13.4062C20.5 12.8391 20.0387 12.375 19.475 12.375ZM68.675 12.375H62.525C61.9613 12.375 61.5 12.8391 61.5 13.4062V52.5938C61.5 53.1609 61.9613 53.625 62.525 53.625H68.675C69.2387 53.625 69.7 53.1609 69.7 52.5938V13.4062C69.7 12.8391 69.2387 12.375 68.675 12.375ZM52.275 12.375H46.125C45.5612 12.375 45.1 12.8391 45.1 13.4062V52.5938C45.1 53.1609 45.5612 53.625 46.125 53.625H52.275C52.8387 53.625 53.3 53.1609 53.3 52.5938V13.4062C53.3 12.8391 52.8387 12.375 52.275 12.375Z" fill="#CE582B"/>
</svg>
