<svg width="64" height="51" viewBox="0 0 94 75" fill="none" xmlns="http://www.w3.org/2000/svg">
<g clip-path="url(#clip0)">
<path d="M3.525 38.6719C1.57891 38.6719 0 40.2466 0 42.1875C0 44.1284 1.57891 45.7031 3.525 45.7031C5.4711 45.7031 7.05 44.1284 7.05 42.1875C7.05 40.2466 5.4711 38.6719 3.525 38.6719ZM3.525 52.7344C1.57891 52.7344 0 54.3091 0 56.25C0 58.1909 1.57891 59.7656 3.525 59.7656C5.4711 59.7656 7.05 58.1909 7.05 56.25C7.05 54.3091 5.4711 52.7344 3.525 52.7344ZM3.525 66.7969C1.57891 66.7969 0 68.3716 0 70.3125C0 72.2534 1.57891 73.8281 3.525 73.8281C5.4711 73.8281 7.05 72.2534 7.05 70.3125C7.05 68.3716 5.4711 66.7969 3.525 66.7969ZM90.5147 5.56934L70.2753 0.161133C69.8685 0.0527344 69.4587 0 69.0563 0C66.9809 0 65.0818 1.38135 64.5193 3.47461L60.8518 17.1284L60.1013 16.3799C59.6298 15.9097 59.035 15.6914 58.4489 15.6914C57.4399 15.6914 56.4573 16.3345 56.1665 17.4419L50.8907 37.5H32.9C30.3047 37.5 28.2 39.5991 28.2 42.1875V70.3125C28.2 72.9009 30.3047 75 32.9 75H72.6473C76.9199 75 80.6564 72.126 81.7404 68.0039L87.3158 46.8062C87.7388 45.1948 87.2746 43.4795 86.0938 42.3018L85.637 41.8462L93.8385 11.3101C94.5112 8.80957 93.0233 6.24023 90.5147 5.56934ZM77.1931 66.8145C76.6512 68.874 74.7814 70.3125 72.6473 70.3125H32.9V42.1875H54.5171L55.4365 38.6895L59.6724 22.582L82.7685 45.6167L77.1931 66.8145ZM81.7977 38.0186L64.6911 20.9575L69.0636 4.68896L89.3 10.0972L81.7977 38.0186ZM17.625 45.7031C15.6789 45.7031 14.1 47.2778 14.1 49.2188C14.1 51.1597 15.6789 52.7344 17.625 52.7344C19.5711 52.7344 21.15 51.1597 21.15 49.2188C21.15 47.2778 19.5711 45.7031 17.625 45.7031ZM17.625 59.7656C15.6789 59.7656 14.1 61.3403 14.1 63.2812C14.1 65.2222 15.6789 66.7969 17.625 66.7969C19.5711 66.7969 21.15 65.2222 21.15 63.2812C21.15 61.3403 19.5711 59.7656 17.625 59.7656Z" fill="#CE582B"/>
</g>
<defs>
<clipPath id="clip0">
<rect width="94" height="75" fill="white"/>
</clipPath>
</defs>
</svg>
