<?xml version="1.0" encoding="utf-8"?>
<!-- Generator: Adobe Illustrator 17.1.0, SVG Export Plug-In . SVG Version: 6.00 Build 0)  -->
<!DOCTYPE svg PUBLIC "-//W3C//DTD SVG 1.1//EN" "http://www.w3.org/Graphics/SVG/1.1/DTD/svg11.dtd">
<svg version="1.1" id="Layer_1" focusable="false" xmlns="http://www.w3.org/2000/svg" xmlns:xlink="http://www.w3.org/1999/xlink"
	 x="0px" y="0px" viewBox="0 0 30 30" enable-background="new 0 0 30 30" xml:space="preserve">
<path fill="#CE582B" d="M24,13.5c-3.3,0-6,2.7-6,6s2.7,6,6,6s6-2.7,6-6S27.3,13.5,24,13.5z M24,24c-2.5,0-4.5-2-4.5-4.5
	s2-4.5,4.5-4.5s4.5,2,4.5,4.5S26.5,24,24,24z M26.8,18.5H25v-1.8c0-0.1-0.1-0.2-0.2-0.2h-1.5c-0.1,0-0.2,0.1-0.2,0.2v1.8h-1.8
	c-0.1,0-0.2,0.1-0.2,0.2v0v1.5c0,0.1,0.1,0.2,0.2,0.2H23v1.8c0,0.1,0.1,0.2,0.2,0.2h0h1.5c0.1,0,0.2-0.1,0.2-0.2l0,0v-1.8h1.8
	c0.1,0,0.2-0.1,0.2-0.2v-1.5C27,18.6,26.9,18.5,26.8,18.5C26.8,18.5,26.8,18.5,26.8,18.5z M15,15c2.9,0,5.3-2.4,5.3-5.3
	S17.9,4.5,15,4.5S9.8,6.9,9.8,9.8C9.7,12.6,12.1,15,15,15C15,15,15,15,15,15z M15,6c2.1,0,3.8,1.7,3.8,3.8s-1.7,3.8-3.8,3.8
	s-3.8-1.7-3.8-3.8C11.3,7.7,12.9,6,15,6z M4.5,13.5c2.1,0,3.8-1.7,3.8-3.8S6.6,6,4.5,6S0.8,7.7,0.8,9.8S2.4,13.5,4.5,13.5z M4.5,7.5
	c1.2,0,2.3,1,2.3,2.3S5.7,12,4.5,12s-2.3-1-2.3-2.3S3.3,7.5,4.5,7.5z M18,24H8.3c-0.4,0-0.8-0.3-0.8-0.8v-2.1c0-0.8,0.2-1.5,0.7-2.2
	c0.6-1,1.8-1.5,3.1-1.5S13,18,15,18c0.6,0,1.1-0.1,1.7-0.2c0.1-0.6,0.4-1.2,0.6-1.7c-0.7,0.2-1.2,0.4-2.3,0.4
	c-1.8,0-2.2-0.6-3.8-0.6c-1.7,0-3.4,0.8-4.3,2.2C6.3,19,6,20.1,6,21.2v2.1c0,1.2,1,2.3,2.3,2.3l0,0h11.3C19,25.1,18.5,24.6,18,24z
	 M7.4,15.6C6.8,15.2,6.1,15,5.4,15H3.6c-2,0-3.6,1.7-3.6,3.8c0,0.4,0.3,0.8,0.8,0.8s0.8-0.3,0.8-0.8c0-1.2,0.9-2.3,2.1-2.3h1.9
	c0.3,0,0.5,0.1,0.7,0.2C6.5,16.3,6.9,15.9,7.4,15.6z"/>
</svg>
