<svg width="73" height="58" viewBox="0 0 94 75" fill="none" xmlns="http://www.w3.org/2000/svg">
<path d="M79.9 32.8125C86.3919 32.8125 91.65 27.5684 91.65 21.0938C91.65 14.6191 86.3919 9.375 79.9 9.375C73.4081 9.375 68.15 14.6191 68.15 21.0938C68.15 27.5684 73.4081 32.8125 79.9 32.8125ZM79.9 14.0625C83.7922 14.0625 86.95 17.2119 86.95 21.0938C86.95 24.9756 83.7922 28.125 79.9 28.125C76.0078 28.125 72.85 24.9756 72.85 21.0938C72.85 17.2119 76.0078 14.0625 79.9 14.0625ZM47 37.5C56.0916 37.5 63.45 30.1611 63.45 21.0938C63.45 12.0264 56.0916 4.6875 47 4.6875C37.9084 4.6875 30.55 12.0264 30.55 21.0938C30.55 30.1611 37.9084 37.5 47 37.5ZM47 9.375C53.4772 9.375 58.75 14.6338 58.75 21.0938C58.75 27.5537 53.4772 32.8125 47 32.8125C40.5228 32.8125 35.25 27.5537 35.25 21.0938C35.25 14.6338 40.5228 9.375 47 9.375ZM82.8375 37.5H76.9625C74.73 37.5 72.6591 38.2031 70.9259 39.3896C72.3066 40.3271 73.555 41.4258 74.6566 42.6709C75.3762 42.3633 76.1547 42.1875 76.9625 42.1875H82.8375C86.3919 42.1875 89.3 45.3369 89.3 49.2188C89.3 50.5078 90.3575 51.5625 91.65 51.5625C92.9425 51.5625 94 50.5078 94 49.2188C94 42.7588 88.9916 37.5 82.8375 37.5ZM14.1 32.8125C20.5919 32.8125 25.85 27.5684 25.85 21.0938C25.85 14.6191 20.5919 9.375 14.1 9.375C7.60812 9.375 2.35 14.6191 2.35 21.0938C2.35 27.5684 7.60812 32.8125 14.1 32.8125ZM14.1 14.0625C17.9922 14.0625 21.15 17.2119 21.15 21.0938C21.15 24.9756 17.9922 28.125 14.1 28.125C10.2078 28.125 7.05 24.9756 7.05 21.0938C7.05 17.2119 10.2078 14.0625 14.1 14.0625ZM58.7647 40.4297C53.8591 40.4297 52.64 42.1875 47 42.1875C41.36 42.1875 40.1409 40.4297 35.2353 40.4297C29.9037 40.4297 24.7191 42.8027 21.6787 47.2998C19.8575 49.9951 18.8 53.2324 18.8 56.7188V63.2812C18.8 67.1631 21.9578 70.3125 25.85 70.3125H68.15C72.0422 70.3125 75.2 67.1631 75.2 63.2812V56.7188C75.2 53.2324 74.1425 49.9951 72.3212 47.2998C69.2809 42.8027 64.0962 40.4297 58.7647 40.4297ZM70.5 63.2812C70.5 64.5703 69.4425 65.625 68.15 65.625H25.85C24.5575 65.625 23.5 64.5703 23.5 63.2812V56.7188C23.5 54.2871 24.2197 51.9287 25.5709 49.9219C27.5978 46.9189 31.2109 45.1172 35.2206 45.1172C39.245 45.1172 40.6844 46.875 47 46.875C53.3156 46.875 54.755 45.1172 58.7647 45.1172C62.7744 45.1172 66.3875 46.9189 68.4144 49.9219C69.7656 51.9287 70.4853 54.2871 70.4853 56.7188V63.2812H70.5ZM23.0741 39.3896C21.3263 38.2031 19.2553 37.5 17.0375 37.5H11.1625C5.00844 37.5 0 42.7588 0 49.2188C0 50.5078 1.0575 51.5625 2.35 51.5625C3.6425 51.5625 4.7 50.5078 4.7 49.2188C4.7 45.3369 7.60812 42.1875 11.1625 42.1875H17.0375C17.8453 42.1875 18.6237 42.3633 19.3434 42.6709C20.445 41.4258 21.7081 40.3271 23.0741 39.3896Z" fill="#CE582B"/>
</svg>
