<svg width="63" height="50" viewBox="0 0 84 67" fill="none" xmlns="http://www.w3.org/2000/svg">
<path d="M81.9 52.3438H18.9V2.09375C18.9 0.942187 17.955 0 16.8 0H2.1C0.945 0 0 0.942187 0 2.09375V4.1875C0 5.33906 0.945 6.28125 2.1 6.28125H12.6V56.5312C12.6 57.6828 13.545 58.625 14.7 58.625H21.3806C21.1444 59.2793 21 59.9859 21 60.7188C21 64.1865 23.8219 67 27.3 67C30.7781 67 33.6 64.1865 33.6 60.7188C33.6 59.9859 33.4425 59.2793 33.2194 58.625H59.1937C58.9575 59.2793 58.8131 59.9859 58.8131 60.7188C58.8131 64.1865 61.635 67 65.1131 67C68.5912 67 71.4131 64.1865 71.4131 60.7188C71.4131 59.9859 71.2556 59.2793 71.0325 58.625H81.9C83.055 58.625 84 57.6828 84 56.5312V54.4375C84 53.2859 83.055 52.3438 81.9 52.3438Z" fill="#CE582B"/>
</svg>
