<?xml version="1.0" encoding="utf-8"?>
<!-- Generator: Adobe Illustrator 17.1.0, SVG Export Plug-In . SVG Version: 6.00 Build 0)  -->
<!DOCTYPE svg PUBLIC "-//W3C//DTD SVG 1.1//EN" "http://www.w3.org/Graphics/SVG/1.1/DTD/svg11.dtd">
<svg version="1.1" id="Layer_1" xmlns="http://www.w3.org/2000/svg" xmlns:xlink="http://www.w3.org/1999/xlink" x="0px" y="0px"
	 viewBox="78.8 0 67 57" enable-background="new 78.8 0 67 57" xml:space="preserve">
<path fill="#CE582B" d="M139.8,28.6l-4.1-8.7c-0.2-0.5-0.7-0.8-1.2-0.8c-0.1,0-20.1,2.7-20.1,2.7s-6.2-0.8-11.7-1.6
	c-4.4-0.6-8.4-1.1-8.4-1.1c-0.5,0-0.9,0.3-1.2,0.8L89,28.6c-0.4,0.8,0,1.7,0.8,1.9l4.2,1.3v17.8c0,1.2,0.8,2.3,1.9,2.6l17.2,4.6
	c1.1,0.3,2,0.1,2.5,0l17.3-4.6c1.1-0.3,1.9-1.4,1.9-2.6V31.8l4.2-1.3C139.8,30.3,140.2,29.3,139.8,28.6z M95,21.9l15.2,2.1l-4.8,8.4
	L92,28.4L95,21.9z M96.5,32.5c9.8,3,9.2,2.8,9.4,2.8c0.5,0,0.9-0.2,1.1-0.7l6-10.6V54l-16.6-4.4V32.5z M132.3,49.6L115.7,54V24.1
	l6,10.6c0.2,0.4,0.7,0.7,1.1,0.7c0.3,0-0.4,0.2,9.4-2.8V49.6z M123.4,32.4l-4.8-8.4l15.2-2l3,6.4L123.4,32.4z"/>
<path fill="#CE582B" d="M125.5,21.8l-1.9-14.2c-0.6-4.4-4.7-7.8-9.5-7.3c-4.8,0.5-7.8,5-7.3,9.5l1.6,12.3 M110.5,18l-1.3-8.3
	c-0.5-3.4,1.9-6.5,5.3-6.7c3.4-0.5,6.5,1.9,6.7,5.3l1.4,7.9L110.5,18z M110.6,20.3l12-1.7"/>
<path fill="#CE582B" d="M97.1,7.3c-3.8,2.4-4.9,7.4-2.5,11.1c2.4,3.8,7.4,4.9,11.1,2.5c3.8-2.4,4.9-7.4,2.5-11.1
	C105.8,6.1,100.9,4.9,97.1,7.3z M98,8.7c2.8-1.8,6.4-1.1,8.4,1.4l-10.7,6.8C94.2,14,95.2,10.4,98,8.7z M104.9,19.6
	c-2.8,1.8-6.4,1.1-8.4-1.4l10.7-6.8C108.6,14.3,107.6,17.8,104.9,19.6z"/>
<polyline fill="#CE582B" points="107,20.8 122.5,20.7 125.6,20.3 "/>
</svg>
