<?xml version="1.0" encoding="utf-8"?>
<!-- Generator: Adobe Illustrator 17.1.0, SVG Export Plug-In . SVG Version: 6.00 Build 0)  -->
<!DOCTYPE svg PUBLIC "-//W3C//DTD SVG 1.1//EN" "http://www.w3.org/Graphics/SVG/1.1/DTD/svg11.dtd">
<svg version="1.1" id="Layer_1" focusable="false" xmlns="http://www.w3.org/2000/svg" xmlns:xlink="http://www.w3.org/1999/xlink"
	 x="0px" y="0px" viewBox="0 0 30 30" enable-background="new 0 0 30 30" xml:space="preserve">
<path fill="#CE582B" d="M28.9,11L19,1.1c-0.2-0.2-0.5-0.2-0.7,0l-0.7,0.7c-0.2,0.2-0.2,0.5,0,0.7l1,1L2.6,19.5c-2.2,2.2-2.2,5.8,0,8
	c2.2,2.2,5.8,2.2,8,0l16.1-16.1l1,1c0.2,0.2,0.5,0.2,0.7,0l0.7-0.7C29.1,11.5,29.1,11.2,28.9,11z M9.2,26.1c-1.4,1.4-3.9,1.4-5.3,0
	c-1.5-1.5-1.5-3.8,0-5.3l3.9-3.9h10.6L9.2,26.1z M20.3,15H9.7L20,4.7l5.3,5.3L20.3,15z"/>
</svg>
