<svg width="45" height="51" viewBox="0 0 62 71" fill="none" xmlns="http://www.w3.org/2000/svg">
<path d="M60.188 56.9525L39.8581 30.3137V4.4375H43.4563C43.913 4.4375 44.2867 4.06309 44.2867 3.60547V0.832031C44.2867 0.374414 43.913 0 43.4563 0H18.5456C18.0889 0 17.7152 0.374414 17.7152 0.832031V3.60547C17.7152 4.06309 18.0889 4.4375 18.5456 4.4375H22.1438V30.3137L1.8139 56.9525C-2.57316 62.7074 1.52327 71 8.73354 71H53.2684C60.4925 71 64.5751 62.7074 60.188 56.9525ZM53.2684 66.5625H8.73354C5.17684 66.5625 3.15631 62.4855 5.32907 59.6566L26.1157 32.4076C26.4063 32.0193 26.5724 31.5479 26.5724 31.0625V4.4375H35.4295V31.0625C35.4295 31.5479 35.5956 32.0193 35.8862 32.4076L56.6728 59.6566C58.8318 62.4855 56.8389 66.5625 53.2684 66.5625Z" fill="#CE582B"/>
</svg>
