<?xml version="1.0" encoding="utf-8"?>
<!-- Generator: Adobe Illustrator 17.1.0, SVG Export Plug-In . SVG Version: 6.00 Build 0)  -->
<!DOCTYPE svg PUBLIC "-//W3C//DTD SVG 1.1//EN" "http://www.w3.org/Graphics/SVG/1.1/DTD/svg11.dtd">
<svg version="1.1" id="Layer_1" focusable="false" xmlns="http://www.w3.org/2000/svg" xmlns:xlink="http://www.w3.org/1999/xlink"
	 x="0px" y="0px" viewBox="0 0 30 30" enable-background="new 0 0 30 30" xml:space="preserve">
<path fill="#CE582B" d="M25.4,5.7l-4.9-4.9C20,0.3,19.3,0,18.5,0h-12C5,0,3.8,1.3,3.8,2.8v24.4C3.8,28.7,5,30,6.6,30h16.9
	c1.6,0,2.8-1.3,2.8-2.8V7.7C26.3,7,26,6.3,25.4,5.7z M18.8,1.9c0.2,0,0.3,0.1,0.4,0.2l4.9,4.9c0.1,0.1,0.2,0.3,0.2,0.4h-5.6V1.9z
	 M24.4,27.2c0,0.5-0.4,0.9-0.9,0.9H6.6c-0.5,0-0.9-0.4-0.9-0.9V2.8c0-0.5,0.4-0.9,0.9-0.9h10.3V8c0,0.8,0.6,1.4,1.4,1.4h6.1V27.2z"
	/>
<g>
	<path fill="#CE582B" d="M10.2,17.2l0.8-1.4h1.3L11,18.1l1.4,2.4h-1.3L10.2,19l-0.8,1.5H8.1l1.4-2.4l-1.3-2.3h1.3L10.2,17.2z"/>
	<path fill="#CE582B" d="M14.1,15.8l0,0.5c0.3-0.4,0.8-0.6,1.3-0.6c0.6,0,1,0.2,1.2,0.7c0.3-0.5,0.8-0.7,1.4-0.7
		c0.5,0,0.9,0.1,1.1,0.4c0.2,0.3,0.4,0.7,0.4,1.3v3h-1.3v-3c0-0.3-0.1-0.5-0.2-0.6s-0.3-0.2-0.5-0.2c-0.4,0-0.6,0.2-0.8,0.5l0,3.2
		h-1.2v-3c0-0.3-0.1-0.5-0.2-0.6s-0.3-0.2-0.5-0.2c-0.4,0-0.6,0.1-0.8,0.4v3.3H13v-4.7H14.1z"/>
	<path fill="#CE582B" d="M21.9,20.5h-1.3v-6.6h1.3V20.5z"/>
</g>
</svg>
